/* XPM */
static char *a96ac4cf94274b77a9c2bddf7b34a958Y1zT0GUrlx0neObP[] = {
/* columns rows colors chars-per-pixel */
"50 44 10 1 ",
"  c #181425",
". c #1B1729",
"X c #1D1B2D",
"o c #262B44",
"O c #282D47",
"+ c #383D54",
"@ c #404861",
"# c #9E2835",
"$ c #F77622",
"% c #596886",
/* pixels */
"%%%%%%%%%%%%%%%%%%%%%%%%%%%%%%%%%%%%%%%%%%%%%%%%%%",
"%%%%%%%%%%%%%%%%%%%%%%%%%%%%%%%%%%%%%%%%%%%%%%%%%%",
"%%%%%%%%%%%%%%%%%%%%%%%%%%%%%%%%%%%%%%%%%%%%%%%%%%",
"%%%%%%%%%%%%%%%%%%%%%%%%%%%%%%%%%%%%%%%%%%%%%%%%%%",
"%%%%%%%%%%%%%%%%%%%%%%%%%%%%%%%%%%%%%%%%%%%%%%%%%%",
"%%%%%%%%%%%%%%%%%%%%%%%%%%%%%%%%%%%%%%%%%%%%%%%%%%",
"%%%%%%%%%%%%%%%%%%%%%%%%%%%%%%%%%%%%%%%%%%%%%%%%%%",
"%%%%%%%%%%%%%%%%%%%%%%%%%%%%%%%%%%%%%%%%%%%%%%%%%%",
"%%%%%%%%%%%%%%%%%%%%%%%%%%%%%%%%%%%%%%%%%%%%%%%%%%",
"%%%%%%%%%%%%%%%%%%%%%%%%%%%%%%%%%%%%%%%%%%%%%%%%%%",
"%%%%%%%%%%%%%%%%%%%%%%%%%%%%%%%%%%%%%%%%%%%%%%%%%%",
"%%%%%%%%%%%%%%%%%%%%%%%%%%%%%%%%%%%%%%%%%%%%%%%%%%",
"%%%%%%%%%%%%%%%%%%%%%%%%%%%%%%%%%%%%%%%%%%%%%%%%%%",
"%%%%%%%%%%%%%%%%%%%%%%%%%%%%%%%%%%%%%%%%%%%%%%%%%%",
"%%%%%%%%%%%%%%%#%%%%%%%%%%%%%%%%##%%%%%%%%%%%%%%%%",
"%%%%%%%%%%%%   # %%%%%%%%%%%%%% ### %%%%%%%%%%%%%%",
"%%%%%%%%%%%%   # %%%%%%%%%%%%%% ### %%%%%%%%%%%%%%",
"%%%%%%%%%%   ###   %%%%%%%%%%   ###   %%%%%%%%%%%%",
"%%%%%%%%%   #####   %%%%%%%%   #####   %%%%%%%%%%%",
"%%%%%%%%% oo$###$oo %%%%%%%% oo$$$#$oo %%%%%%%%%%%",
"%%%%%%%%% oo$###$oo %%%%%%%% oo$$$#$oo %%%%%%%%%%%",
"%%%%%%%%%%ooo$$$ooo%%%%%%%%%%ooo$$$ooo%%%%%%%%%%%%",
"%%%%%%%%%%%%ooooo%%%%%%%%%%%%%%ooooo%%%%%%%%%%%%%%",
"%%%%%%%%%%%%%%%%%%%%%%%%%%%%%%%%%%%%%%%%%%%%%%%%%%",
"%%%%%%%%%%%%%%%%%%%%%%%%%%%%%%%%%%%%%%%%%%%%%%%%%%",
"%%%%%%%%%%%%%%%%%%%%%%%%%%%%%%%%%%%%%%%%%%%%%%%%%%",
"%%%%%%%%%%%%%%%%%%%%%%%%#%%%%%%%%%%%%%%%%%%%%%%%%%",
"%%%%%%%%%%%%%%%%%%%%%%  # %%%%%%%%%%%%%%%%%%%%%%%%",
"%%%%%%%%%%%%%%%%%%%    ##    %%%%%%%%%%%%%%%%%%%%%",
"%%%%%%%%%%%%%%%%%%%    ##    %%%%%%%%%%%%%%%%%%%%%",
"%%%%%%%%%%%%%%%%%%    ####    %%%%%%%%%%%%%%%%%%%%",
"%%%%%%%%%%%%%%%%%% ooo$##$ooo %%%%%%%%%%%%%%%%%%%%",
"%%%%%%%%%%%%%%%%%%%oooo$$oooo%%%%%%%%%%%%%%%%%%%%%",
"%%%%%%%%%%%%%%%%%%%oooo$$oooo%%%%%%%%%%%%%%%%%%%%%",
"%%%%%%%%%%%%%%%%%%%%%%oooo%%%%%%%%%%%%%%%%%%%%%%%%",
"%%%%%%%%%%%%%##%%%%%%%%%%%%%%%%%##%%%%%%%%%%%%%%%%",
"%%%%%%%%%%%% ### %%%%%%%%%%%%%% ### %%%%%%%%%%%%%%",
"%%%%%%%%%%%% ### %%%%%%%%%%%%%% ### %%%%%%%%%%%%%%",
"%%%%%%%%%%   ###   %%%%%%%%%%   ###  X%%%%%%%%%%%%",
"%%%%%%%%%   #####   %%%%%%%%   ##### .@%%%%%%%%%%%",
"%%%%%%%%% oo$$$#$oo %%%%%%%% oo$$$#$oO+%%%%%%%%%%%",
"%%%%%%%%%%ooo$$$ooo%%%%%%%%%%ooo$$$ooo%%%%%%%%%%%%",
"%%%%%%%%%%ooo$$$ooo%%%%%%%%%%ooo$$$ooo%%%%%%%%%%%%",
"%%%%%%%%%%%%ooooo%%%%%%%%%%%%%%ooooo%%%%%%%%%%%%%%"
};
