/* XPM */
static char *result[] = {
/* columns rows colors chars-per-pixel */
"50 50 208 2 ",
"   c black",
".  c #000004",
"X  c #020505",
"o  c #000606",
"O  c #0E0000",
"+  c #00000C",
"@  c #000E0E",
"#  c #1C0000",
"$  c #1F0000",
"%  c #000019",
"&  c #001717",
"*  c #001818",
"=  c #001B1B",
"-  c #001C1C",
";  c #001F1F",
":  c #101E1E",
">  c #200000",
",  c #2B0000",
"<  c #261212",
"1  c #271212",
"2  c #281515",
"3  c #002500",
"4  c #2E280A",
"5  c #000021",
"6  c #000032",
"7  c #002020",
"8  c #4D0000",
"9  c #570000",
"0  c #580000",
"q  c #5B0000",
"w  c #5C0000",
"e  c #6B0000",
"r  c #6E0000",
"t  c #730000",
"y  c #740000",
"u  c #750000",
"i  c #760000",
"p  c #76130E",
"a  c #611E1E",
"s  c #6C1D1D",
"d  c #6C1E1E",
"f  c #761414",
"g  c #7D1515",
"h  c #771919",
"j  c #771A1A",
"k  c #771B1B",
"l  c #6D2424",
"z  c #662E2E",
"x  c #6F2B2B",
"c  c #702D2D",
"v  c #3F4134",
"b  c #4D5600",
"n  c #656D00",
"m  c #5A5F2C",
"M  c #5B6120",
"N  c #646A27",
"B  c #666C2E",
"V  c #004B44",
"C  c #2E5F5A",
"Z  c #57595D",
"A  c #6E736B",
"S  c #9C0000",
"D  c #9C0B0B",
"F  c #9E0A0A",
"G  c #9D0D0D",
"H  c #971212",
"J  c #A00404",
"K  c #A00606",
"L  c #A50707",
"P  c #AA0302",
"I  c #AD0302",
"U  c #AE0302",
"Y  c #AF0302",
"T  c #A50909",
"R  c #AE0F0F",
"E  c #B10202",
"W  c #B90000",
"Q  c #B90202",
"!  c #BB0202",
"~  c #BF0101",
"^  c #B90404",
"/  c #B90909",
"(  c #C00101",
")  c #C30000",
"_  c #C30100",
"`  c #C20101",
"'  c #C30101",
"]  c #C20202",
"[  c #C30202",
"{  c #C30303",
"}  c #C40101",
"|  c #C70000",
" . c #C90100",
".. c #C30808",
"X. c #D90000",
"o. c #DA0000",
"O. c #DE0000",
"+. c #DF0000",
"@. c #C21000",
"#. c #E10000",
"$. c #E20000",
"%. c #E30000",
"&. c #E30101",
"*. c #E40000",
"=. c #E50000",
"-. c #E60000",
";. c #E70000",
":. c #E80000",
">. c #E90000",
",. c #EA0000",
"<. c #EB0000",
"1. c #EA0100",
"2. c #EA0101",
"3. c #EC0000",
"4. c #ED0000",
"5. c #ED0101",
"6. c #EE0000",
"7. c #EE0202",
"8. c #EF0303",
"9. c #F30101",
"0. c #F00707",
"q. c #F40E00",
"w. c #1C897F",
"e. c #868B00",
"r. c #859800",
"t. c #A5B101",
"y. c #A7B306",
"u. c #ABB700",
"i. c #ADBA00",
"p. c #AEBA00",
"a. c #B3BF00",
"s. c #A6B211",
"d. c #B6C300",
"f. c #B6C213",
"g. c #C1CF00",
"h. c #C3D000",
"j. c #C5D200",
"k. c #C4D206",
"l. c #C9D700",
"z. c #C8D601",
"x. c #CFDE00",
"c. c #C2D011",
"v. c #D2E000",
"b. c #D4E200",
"n. c #D4E300",
"m. c #D6E500",
"M. c #D5E402",
"N. c #DBEA00",
"B. c #E2F100",
"V. c #E3F200",
"C. c #E4F400",
"Z. c #E5F500",
"A. c #E4F401",
"S. c #E6F600",
"D. c #E7F700",
"F. c #E8F800",
"G. c #E8F900",
"H. c #E9F900",
"J. c #E9FA00",
"K. c #EAFA00",
"L. c #EBFB00",
"P. c #EBFC00",
"I. c #ECFC00",
"U. c #ECFD00",
"Y. c #EDFD00",
"T. c #EEFE00",
"R. c #EEFF00",
"E. c #EFFF00",
"W. c #EEFE01",
"Q. c #F1FF01",
"!. c #F4FF00",
"~. c #F5FF00",
"^. c #F7FF01",
"/. c #F2FF07",
"(. c #F6FF0F",
"). c #008980",
"_. c #008D84",
"`. c #0E8980",
"'. c #0F8980",
"]. c #0C8A80",
"[. c #0D8A80",
"{. c #0E8A80",
"}. c #3CA499",
"|. c #00B6AA",
" X c #00B8AC",
".X c #11B1A6",
"XX c #02C3B6",
"oX c #05C3B6",
"OX c #06C3B6",
"+X c #0BC1B5",
"@X c #00C8BB",
"#X c #06D1C3",
"$X c #05D2C4",
"%X c #06D2C4",
"&X c #06D3C5",
"*X c #05D6C8",
"=X c #05D7C9",
"-X c #06D7C9",
";X c #06D8C9",
":X c #04D8CA",
">X c #04D9CB",
",X c #07D8CA",
"<X c #04DACB",
"1X c #06DACC",
"2X c #06DBCC",
"3X c #07DBCC",
"4X c #0DDECF",
"5X c #11E1D2",
/* pixels */
"Z Z Z Z Z Z Z Z Z Z Z Z Z Z Z Z Z Z Z Z Z Z Z Z Z Z Z Z Z Z Z Z Z Z Z Z Z Z Z Z Z Z Z Z Z Z Z Z Z Z ",
"Z Z Z Z Z Z Z Z Z Z Z Z Z Z Z Z Z Z Z Z Z Z Z Z Z Z Z Z Z Z Z Z Z Z Z Z Z Z Z Z Z Z Z Z Z Z Z Z Z Z ",
"Z Z Z Z Z Z Z Z Z Z Z Z Z Z Z Z Z Z     Z Z Z Z Z Z Z Z Z Z Z Z Z Z Z Z Z Z Z Z Z Z Z Z Z Z Z Z Z Z ",
"Z Z Z Z Z Z Z Z Z Z Z Z Z Z Z Z Z Z         Z Z Z Z Z Z Z Z Z Z Z Z Z Z Z Z Z Z Z Z Z Z Z Z Z Z Z Z ",
"Z Z Z Z Z Z Z Z Z Z Z Z             n n n     Z Z Z Z Z Z Z Z Z Z Z Z Z Z Z Z Z Z Z Z Z Z Z Z Z Z Z ",
"Z Z Z Z Z Z Z Z Z Z Z Z   n n N     n T.n m     Z Z Z Z Z Z Z Z Z Z Z Z Z Z Z Z Z Z Z Z Z Z Z Z Z Z ",
"Z Z Z Z Z Z Z             n Q.x.    d.E.B.M     Z Z Z Z Z Z Z Z Z Z Z Z Z Z Z Z Z Z Z Z Z Z Z Z Z Z ",
"Z Z Z Z Z       n n n .   n Y.N.p.u.v.L.C.f.    Z Z Z Z Z Z Z Z Z Z Z Z Z Z Z Z Z Z Z Z Z Z Z Z Z Z ",
"Z Z Z Z Z     n n ^.a.    n.L.F.E.E.K.S.D.I.(.    Z Z Z Z Z Z Z Z Z Z Z Z Z Z Z Z Z Z Z Z Z Z Z Z Z ",
"Z Z Z Z Z     B V.Y.i.    n.L.Z.Z.Z.S.D.D.A.P.c.6   Z Z Z Z Z Z Z Z Z Z Z Z Z Z Z Z Z Z Z Z Z Z Z Z ",
"Z Z Z Z Z     b U.W.P.J.K.D.D.D.D.S.L.T.Y.I.!.z.5   Z Z Z Z Z Z Z Z Z Z Z Z Z Z Z Z Z Z Z Z Z Z Z Z ",
"Z Z Z Z Z Z     k.g.M.G.S.D.D.D.S.H.b.g.j.h.l.t.%   Z Z Z Z Z Z Z Z Z Z Z Z Z Z Z Z Z Z Z Z Z Z Z Z ",
"Z Z Z Z Z Z Z Z     y.R.Z.D.D.F.P.~.                * 7 ; ; ; 7     Z Z Z Z Z Z Z Z Z Z Z Z Z Z Z Z ",
"Z Z Z Z Z Z Z Z   + s.T.C.Z.J.m.e.r.  | @._ _ _ ) ) ' ' ' ' ' [ ..    Z Z Z Z Z Z Z Z Z Z Z Z Z Z Z ",
"Z Z Z Z Z Z Z Z       /.F.G.E.x.      q.,.3.3.3.3.3.3.3.3.3.3.3.<.0.    Z Z Z Z Z Z Z Z Z Z Z Z Z Z ",
"Z Z Z Z Z Z Z Z Z Z     v 4 3     %.=.-.-.-.-.-.-.-.=.*.*.*.*.*.*.*.$.        Z Z Z Z Z Z Z Z Z Z Z ",
"Z Z Z Z Z Z Z Z Z Z Z         t 1.-.-.-.-.-.-.-.-.=.<.6.4.4.4.4.6.4.4.9.o.-   Z Z Z Z Z Z Z Z Z Z Z ",
"Z Z Z Z Z Z Z Z Z Z Z Z Z Z   p >.=.-.-.-.-.-.-.=.>.] P Y U U U Y Y I E J :     Z Z Z Z Z Z Z Z Z Z ",
"Z Z Z Z Z Z Z Z Z Z Z Z Z Z   h >.=.-.-.-.-.-.-.-.        $ $ $ $ $ $ > #           Z Z Z Z Z Z Z Z ",
"Z Z Z Z Z Z Z Z Z Z Z Z Z Z   h >.=.-.-.-.=.<. .    }.@X+XoXoXoXoXoXoXoXoXoXoXOXXX    Z Z Z Z Z Z Z ",
"Z Z Z Z Z Z Z Z Z Z Z Z Z Z   j >.=.-.-.-.*.3.(     |.4X*X;X;X;X;X;X;X;X;X;X;X-X,X=XV   Z Z Z Z Z Z ",
"Z Z Z Z Z Z Z Z           O o y >.=.-.-.-.*.3.'   , .X:X#X%X%X%X%X%X%X%X%X%X%X%X&X$XC   Z Z Z Z Z Z ",
"Z Z Z Z Z Z Z     @ = & & X   y >.=.-.-.-.*.4.~      X5X>X2X1X1X2X1X1X2X2X2X1X1X3X<X    Z Z Z Z Z Z ",
"Z Z Z Z Z Z     / W ^ Q ! 9   u >.=.-.-.-.=.:.X.    A _.w.[.`.{.{.{.{.{.{.{.'.].).    Z Z Z Z Z Z Z ",
"Z Z Z Z Z Z   z *.=.*.*.-.e   i >.=.-.-.-.-.-.=.%.                                  Z Z Z Z Z Z Z Z ",
"Z Z Z Z Z Z   a =.-.-.-.:.e   i >.=.-.-.-.-.-.-.-.-.#.+.+.+.+.+.+.+.+.+.+.O.;.K   < Z Z Z Z Z Z Z Z ",
"Z Z Z Z Z Z   a =.-.-.-.:.e   i >.=.-.-.-.-.-.-.-.-.-.=.-.-.=.=.=.=.=.=.=.*.4.L   1 Z Z Z Z Z Z Z Z ",
"Z Z Z Z Z Z   a =.-.-.-.:.e   i >.=.-.-.-.-.-.-.-.-.-.-.-.-.-.-.-.-.-.-.-.*.6.L   1 Z Z Z Z Z Z Z Z ",
"Z Z Z Z Z Z   a =.-.-.-.:.e   i >.=.-.-.-.-.-.-.-.-.-.-.-.-.-.-.-.-.-.-.-.*.6.L   1 Z Z Z Z Z Z Z Z ",
"Z Z Z Z Z Z   a =.-.-.-.:.e   i >.=.-.-.-.-.-.-.-.-.-.-.-.-.-.-.-.-.-.-.-.*.6.L   1 Z Z Z Z Z Z Z Z ",
"Z Z Z Z Z Z   a =.-.-.-.:.e   i >.=.-.-.-.-.-.-.-.-.-.-.-.-.-.-.-.-.-.-.-.*.6.L   1 Z Z Z Z Z Z Z Z ",
"Z Z Z Z Z Z   a =.-.-.-.:.e   i >.=.-.-.-.-.-.-.-.-.-.-.-.-.-.-.-.-.-.-.-.*.6.L   1 Z Z Z Z Z Z Z Z ",
"Z Z Z Z Z Z   a =.-.-.-.:.e   i >.=.-.-.-.-.-.-.-.-.-.-.-.-.-.-.-.-.-.-.-.*.6.L   1 Z Z Z Z Z Z Z Z ",
"Z Z Z Z Z Z   a =.-.-.-.:.e   i >.=.-.-.-.-.-.-.-.-.-.-.-.-.-.-.-.-.-.-.-.*.6.L   1 Z Z Z Z Z Z Z Z ",
"Z Z Z Z Z Z   a =.-.-.-.:.e   i >.=.-.-.-.-.-.-.-.-.-.-.-.-.-.-.-.-.-.-.-.*.6.L   1 Z Z Z Z Z Z Z Z ",
"Z Z Z Z Z Z   8 <.5.3.3.6.r   i >.=.-.-.-.-.-.-.-.-.-.-.-.-.-.-.-.-.-.-.-.*.6.L   1 Z Z Z Z Z Z Z Z ",
"Z Z Z Z Z Z       ) { ' } q   i >.=.-.-.-.-.-.-.-.-.-.-.-.-.-.-.-.-.-.-.-.*.6.L   1 Z Z Z Z Z Z Z Z ",
"Z Z Z Z Z Z Z Z               y >.=.-.-.-.-.-.-.-.-.,.3.<.-.-.-.-.-.-.-.-.*.6.L   1 Z Z Z Z Z Z Z Z ",
"Z Z Z Z Z Z Z Z Z Z Z Z Z Z   f >.=.-.-.-.-.-.-.*.>.R g H &.-.=.-.-.-.-.-.*.6.L   1 Z Z Z Z Z Z Z Z ",
"Z Z Z Z Z Z Z Z Z Z Z Z Z Z   j >.=.-.-.-.-.-.;.;.        =.2.;.-.-.-.-.-.*.6.L   1 Z Z Z Z Z Z Z Z ",
"Z Z Z Z Z Z Z Z Z Z Z Z Z Z   h >.=.-.-.-.*.3.' ;   Z Z       F 4.*.-.-.-.*.6.L   1 Z Z Z Z Z Z Z Z ",
"Z Z Z Z Z Z Z Z Z Z Z Z Z Z   h >.=.-.-.-.*.3.` 7   Z Z Z     D 4.*.-.-.-.*.6.L   1 Z Z Z Z Z Z Z Z ",
"Z Z Z Z Z Z Z Z Z Z Z Z Z Z   k >.=.-.-.-.*.3.]     Z Z Z Z   G 4.*.-.-.-.*.4.T   2 Z Z Z Z Z Z Z Z ",
"Z Z Z Z Z Z Z Z Z Z Z Z Z Z     <.;.;.;.;.-.7.)     Z Z Z Z   S 8.-.;.;.;.-.8.      Z Z Z Z Z Z Z Z ",
"Z Z Z Z Z Z Z Z Z Z Z Z Z Z Z     l d s s x w     Z Z Z Z Z       c s s s c 0   Z Z Z Z Z Z Z Z Z Z ",
"Z Z Z Z Z Z Z Z Z Z Z Z Z Z Z Z                 Z Z Z Z Z Z Z Z               Z Z Z Z Z Z Z Z Z Z Z ",
"Z Z Z Z Z Z Z Z Z Z Z Z Z Z Z Z Z Z Z Z Z Z Z Z Z Z Z Z Z Z Z Z Z Z Z Z Z Z Z Z Z Z Z Z Z Z Z Z Z Z ",
"Z Z Z Z Z Z Z Z Z Z Z Z Z Z Z Z Z Z Z Z Z Z Z Z Z Z Z Z Z Z Z Z Z Z Z Z Z Z Z Z Z Z Z Z Z Z Z Z Z Z ",
"Z Z Z Z Z Z Z Z Z Z Z Z Z Z Z Z Z Z Z Z Z Z Z Z Z Z Z Z Z Z Z Z Z Z Z Z Z Z Z Z Z Z Z Z Z Z Z Z Z Z ",
"Z Z Z Z Z Z Z Z Z Z Z Z Z Z Z Z Z Z Z Z Z Z Z Z Z Z Z Z Z Z Z Z Z Z Z Z Z Z Z Z Z Z Z Z Z Z Z Z Z Z "
};
