/* XPM */
static char *ef5108ce91fb4decedebf15741742e703MIKAhcuHZPkrX43[] = {
/* columns rows colors chars-per-pixel */
"50 50 8 1 ",
"  c #596886",
". c #07141C",
"X c #7F4383",
"o c #E5C8D4",
"O c white",
"+ c #A5467A",
"@ c #C98EA6",
"# c #3F2141",
/* pixels */
"                                                  ",
"                                                  ",
"                                                  ",
"                                                  ",
"                        ...                       ",
"                        ...                       ",
"                      ..XXX...                    ",
"                      ..XXX...                    ",
"                      ..XXX...                    ",
"                   ...ooXXXXXX..                  ",
"                   ...ooXXXXXX..                  ",
"                   ...ooXXXXXX..                  ",
"                 ..oooXXXXXXXXXX...               ",
"                 ..oooXXXXXXXXXX...               ",
"              ...ooXXXXXXXXXXXXXooo..             ",
"              ...ooXXXXXXXXXXXXXooo..             ",
"              ...ooXXXXXXXXXXXXXooo..             ",
"           ...oooXXXXXXXXXXXXXXXXXXoo...          ",
"           ...oooXXXXXXXXXXXXXXXXXXoo...          ",
"         ..oooXXXXXXXXXXXXXXXXXXXXXooOOO..        ",
"         ..oooXXXXXXXXXXXXXXXXXXXXXooOOO..        ",
"         ..oooXXXXXXXXXXXXXXXXXXXXXooOOO..        ",
"      ...ooXXXXXXXXXXXXXXXXXXXXXXXXXXoooOO...     ",
"      ...ooXXXXXXXXXXXXXXXXXXXXXXXXXXoooOO...     ",
"      ...ooXXXXXXXXXXXXXXXXXXXXXXXXXXoooOO...     ",
"      ...ooooo+++OO++++++++++++++++++oooOO...     ",
"      ...ooooo+++OO++++++++++++++++++oooOO...     ",
"      ...@@##########################@@@OO...     ",
"      ...@@##########################@@@OO...     ",
"      ...@@##########################@@@OO...     ",
"         ..@@@#####################@@OOO..        ",
"         ..@@@#####################@@OOO..        ",
"           ...@@@##################@@...          ",
"           ...@@@##################@@...          ",
"           ...@@@##################@@...          ",
"              ...@@#############@@@..             ",
"              ...@@#############@@@..             ",
"                 ..@@@##########...               ",
"                 ..@@@##########...               ",
"                 ..@@@##########...               ",
"                   ...@@######..                  ",
"                   ...@@######..                  ",
"                   ...@@######..                  ",
"                      ........                    ",
"                      ........                    ",
"                                                  ",
"                                                  ",
"                                                  ",
"                                                  ",
"                                                  "
};
