/* XPM */
static char *b40c73e8dd5a4d3e8f657ac33ca16020Zf7sFkMOZJdqcdM0[] = {
/* columns rows colors chars-per-pixel */
"50 50 92 1 ",
"  c #57595D",
". c #FF9600",
"X c #FF9800",
"o c #F9A505",
"O c #FFB604",
"+ c #F1B900",
"@ c #F4B60D",
"# c #F5A739",
"$ c #FFC107",
"% c #F8CD0F",
"& c #F0D502",
"* c #FFD606",
"= c #F3D905",
"- c #FDDD03",
"; c #F6D50A",
": c #FBD50D",
"> c #F5DB0C",
", c #FDDD0C",
"< c #FDCD14",
"1 c #FECD1C",
"2 c #EEDD14",
"3 c #F7D512",
"4 c #FED513",
"5 c #F5DD15",
"6 c #FEDD15",
"7 c #FED41D",
"8 c #F2DC1C",
"9 c #FEDD1A",
"0 c #EFE40C",
"q c #FDE202",
"w c #F9E805",
"e c #F3E20A",
"r c #FCE20D",
"t c #F7E80F",
"y c #FDEA08",
"u c #F5E313",
"i c #FDE215",
"p c #F5EB17",
"a c #FCEA12",
"s c #F6E41B",
"d c #FEE219",
"f c #FCE21B",
"g c #FDE418",
"h c #FFE01D",
"j c #F9E61D",
"k c #FFE41E",
"l c #FDE81D",
"z c #FAC320",
"x c #FCC824",
"c c #FED522",
"v c #FFD522",
"b c #FFD624",
"n c #FFD426",
"m c #FFD822",
"M c #FFDB23",
"N c #FCDD23",
"B c #FFDE22",
"V c #FFDF25",
"C c #FFD22B",
"Z c #FFDA2A",
"A c #FDDD29",
"S c #FFDB2C",
"D c #F1C735",
"F c #F3CC31",
"G c #FFDE31",
"H c #FFDA36",
"J c #FFDA39",
"K c #F9E220",
"L c #FDE223",
"P c #FFE522",
"I c #F9E125",
"U c #FEEB22",
"Y c #FCE825",
"T c #F9E32B",
"R c #F7E632",
"E c #F6E535",
"W c #FFEB3B",
"Q c #E5C56E",
"! c #F7DE67",
"~ c #FDDF6B",
"^ c #FFDB73",
"/ c #FFE063",
"( c #F7F262",
") c #FFE977",
"_ c #FFE17E",
"` c #F9D490",
"' c #FFE382",
"] c #F9E493",
"[ c #FFE693",
"{ c #FDE197",
"} c #FFE39A",
"| c #FFECB6",
/* pixels */
"                                                  ",
"                                                  ",
"                                                  ",
"                                                  ",
"                                                  ",
"                $$$$$$$$$$$$$$$$$$                ",
"                $XXXXXXXXXXXXXXXX$                ",
"            $$$$$XXXXXXXXXXXXXXXX$$$$$$$$         ",
"            $XXXXWWWWWWu69dgjjdhyXXXXXXX$         ",
"         $$$$XXXXW{}]/msui6d6666cXXXXXXX$         ",
"         $XXXWWWWWrHJA96sg644466qd4--1XX$$        ",
"       $$$XXXWWWWe-66,,6466di66i:TWWu<.X$$        ",
"       $XX`WWWWWL7djKfi$O$$slf664sWWi413XX$       ",
"       $XXWWWWWWq*aufii6XX6LP96dl9WW49B6XX$       ",
"       $XXWWWWRWWm9XXXXXXXXXXXXh>,WW665>XX$       ",
"       $XXW=,q_WWg*XXXXXXXXXXXX8N9WW9d29XX$$      ",
"       O@.WLseWW(XXXXXXXXXXXXXXXX7WW6696XXO$      ",
"      #QWWWrm,W9FXX$$$$dXXX99MXXX<WW,699c>XX$     ",
"      XXWWYr9WW,7XX$9iu6XXXd9L$$$%WW66699lXX$     ",
"      XXWWIWW,BI6XX$irr6XXX4:673<9WW646d9LXX$     ",
"      XXWWWW799,,XXOdr6iXXXk669h99WW46699bXX$     ",
"      XX)~E49irh4XX$dr56XXXip54966WWWW9ifMXX$     ",
"      XX:bSh9>uR<XX79ijiXXXd569946WWddi9pVXX$     ",
"      XXauq-ZS,6VXX34:46XXXii4589iWW946d5fXX$     ",
"      XXd96i69966XXXXXXXXXXXXXXm9LWWd49i9iXX$     ",
"      XX6d69d66i44XXXXXXXXXXXXX77dWW996i99XX$     ",
"      XXi96966i9ii9XXXXXXXXXXXXXXW4W999>96XX$     ",
"      XX9d6i6996i6999999XXXU6LXXXW6W99d696XX$     ",
"      XX9i99966955i66i6iXXXu>dXXXW9W69d699XX$     ",
"      oXd66669i6hhhd6dh6XXXu>dXXXW9W69h696XX$     ",
"      XXi99ii96dc<<46fd6XXXlihXXXW4W66969dXX$     ",
"      XX9d6696941XXX9i99XXXs59XXX7WWd6969dXX$     ",
"      XXqd,49Ze97XXXB756XXXi89XXX:WW99ieG:Xo$     ",
"       WXX9ju9-L97<XXXXXXXXXXXX1*bWWB96BXX$$$     ",
"       WXX9999,9>l7XXXXXXXXXXXXVqAWWqr-CXX$       ",
"       WXXq94N-e6i4aXXXXXXXXXXXWiAWW'^q7XX$       ",
"       WXXqu896id46dkk69XXXYsjh997WW|[y9XX$       ",
"       WXX<<4iBh9h646,69XX9i;ig:f9WW[!=XX$        ",
"        WWXX<,N24ii4:64d94h6:69ikiWWw&+X          ",
"         WXXb>9,666fffss9hf5d93hemCW9xXX          ",
"         WWXXXXXXm8995p569996999bXXXX$            ",
"           WXXXXX:iBb7Vid9d9dd9drXXXX             ",
"            WWWWWXXXXXXXXXXXXXXzD                 ",
"                 XXXXXXXXXXXXXXXX                 ",
"                                                  ",
"                                                  ",
"                                                  ",
"                                                  ",
"                                                  ",
"                                                  "
};
