/* XPM */
static char *c14d991591814d24ebbedea21e361104hx9s6GEimwNiLcxy[] = {
/* columns rows colors chars-per-pixel */
"50 50 127 2 ",
"   c #78572F",
".  c #795838",
"X  c #65686D",
"o  c #7D6C63",
"O  c #75716C",
"+  c #727B7A",
"@  c #874E0E",
"#  c #85521D",
"$  c #89501D",
"%  c #894F22",
"&  c #85552C",
"*  c #855E3F",
"=  c #94632C",
"-  c #866334",
";  c #86613E",
":  c #88603C",
">  c #926431",
",  c #9D733F",
"<  c #A47735",
"1  c #896441",
"2  c #966F46",
"3  c #956F4A",
"4  c #947042",
"5  c #9D7246",
"6  c #94704B",
"7  c #9D7248",
"8  c #92794F",
"9  c #9C7253",
"0  c #9F7954",
"q  c #967658",
"w  c #A0714A",
"e  c #A27A53",
"r  c #A47F5A",
"t  c #ECB61F",
"y  c #F5AF2E",
"u  c #F9AD2C",
"i  c #F8AC33",
"p  c #F9D71E",
"a  c #F9D81A",
"s  c #EAC92C",
"d  c #F3CF2D",
"f  c #FBD426",
"g  c #FAD529",
"h  c #A0825C",
"j  c #AB845C",
"k  c #AE8963",
"l  c #B38C64",
"z  c #BA916C",
"x  c #EDB34A",
"c  c #F1B146",
"v  c #F3B34B",
"b  c #ECCE6A",
"n  c #0277BD",
"m  c #59778E",
"M  c #5B7B8B",
"N  c #597692",
"B  c #557C93",
"V  c #5C7C93",
"C  c #567E9A",
"Z  c #597E9B",
"A  c #647A8D",
"S  c #617C95",
"D  c #637D9B",
"F  c #57808A",
"G  c #568597",
"H  c #56819F",
"J  c #75858D",
"K  c #62819C",
"L  c #68849E",
"P  c #748694",
"I  c #6986A1",
"U  c #6C88A3",
"Y  c #678AA8",
"T  c #708CA5",
"R  c #829FB9",
"E  c #83A3BC",
"W  c #FFFFB6",
"Q  c #85A5C3",
"!  c #8BA6C5",
"~  c #85A9C6",
"^  c #8AA9C6",
"/  c #85A7CA",
"(  c #8AA7C8",
")  c #85AACA",
"_  c #8AABCA",
"`  c #8EB1CD",
"'  c #95B2CE",
"]  c #98B4CE",
"[  c #8AADD0",
"{  c #8AB0D0",
"}  c #94B4D2",
"|  c #99B6D5",
" . c #97B8D7",
".. c #9CB9D6",
"X. c #99B7D8",
"o. c #9EBCDC",
"O. c #A8BFD7",
"+. c #A2BEDA",
"@. c #AABFE0",
"#. c #A5C3DE",
"$. c #ABC3DE",
"%. c #A7C9DB",
"&. c #B1C3DE",
"*. c #A5C5E3",
"=. c #ABC5E2",
"-. c #A9C7E3",
";. c #ADC6E1",
":. c #ADC4E3",
">. c #AEC4E2",
",. c #AAC5E4",
"<. c #AAC7E7",
"1. c #ADC4E4",
"2. c #AEC7E5",
"3. c #A6C9E2",
"4. c #AEC9E1",
"5. c #AAC9E5",
"6. c #AAC8E6",
"7. c #ADCAE7",
"8. c #ADC7EA",
"9. c #ABCAE8",
"0. c #A8C9EB",
"q. c #ACCAE8",
"w. c #B1C3E4",
"e. c #B1CAEA",
"r. c #C1C9CF",
"t. c #DDEDFA",
"y. c #FEFCFF",
/* pixels */
"X X X X X X X X X X X X X X X X X X X X X X X X X X X X X X X X X X X X X X X X X X X X X X X X X X ",
"X X X X X X X X X X X X X X X X X X X X X X X X X X X X X X X X X X X X X X X X X X X X X X X X X X ",
"X X X X X X X X X X X X X X X X X t.t.t.t.t.t.t.t.t.t.t.t.t.t.t.t.X X X X X X X X X X X X X X X X X ",
"X X X X X X X X X X X X X X X X P ;.;.;.;.;.;.*.+.+.1.( 1.;.1.Q $.J X X X X X X X X X X X X X X X X ",
"X X X X X X X X X X X X X X n V ;.,.#.=.;.) =.;.+.+.) 1.8.;.1.;.,.=.B n X X X X X X X X X X X X X X ",
"X X X X X X X X X X X X n A =.=.#.*.*.;.=.! ,._ +.+.7.1.1.=.1.*.1.1.1.#.A X X X X X X X X X X X X X ",
"X X X X X X X X X X X M #.=.V V S V V I ;.7.^ Q +.E 8.;.;...L V V V V V V *.B X X X X X X X X X X X ",
"X X X X X X X X X X G 6.*.,.,.,.;._ | m ,.) Q ~ Q Q 8.1.( o.m ] ) ;.1.*.;.#.&.H X X X X X X X X X X ",
"X X X X X X X X n T ;.~ =.=._ Q 7.=.;.E R *._ ;.Q Q *.) 9.R E ;.w.7.^ _ *.;.) =.U X X X X X X X X X ",
"X X X X X X X n V V V V V *.=.;.` ~ 1.;.V m V m F M V V N V =.=._ } =.4.1.V V V V V r.X X X X X X X ",
"X X X X X X X $.;.1.;.;.L V ,._ _ ;.4.O 7 7 5 : 7 7 7 1 5 5 o =.$.! ) 1.V D 1.1.;.;.$.X X X X X X X ",
"X X X X X X S | ) _ w._ 1.V =.;.[ ] 8 * 7 7 5 : 7 w 7 1 7 5 5   | _ 1.#.V 1._ 4.) ) ..A X X X X X X ",
"X X X X X K ;.} ,.;.~ =.,.;.V Z q 7 5 : 5 7 5 : 7 7 7 ; 7 7 7 * 7 & Z V ;.;.$.) 1.;. .*.H X X X X X ",
"X X X X X =.)  ._ 1._ ,.,.1.Z 2 7 7 5 : 7 7 5 : 7 7 7 ; 7 7 7 : 7 7 % H ,.,.$._ ,.) | _ w.X X X X X ",
"X X X X X 8.6.) _ ) Q ) =.+ * 6 7 7 7 : 7 7 5 : 7 7 7 1 7 5 5 : 7 7 7 > M 1.~ _ ~ _ ) =.q.X X X X X ",
"X X X X X ) 7.X.) ,./ *.) 5 : 4 7 7 5 : 7 7 5 : 7 7 7 : 7 5 w * 7 7 7 > # / $.) *.)  .9.) X X X X X ",
"X X X X X I U I U U U U Y 7 : 2 7 7 5 : 5 7 5 : 7 7 7 1 7 7 7 : 7 7 7 > % U I U U U U U L X X X X X ",
"X X X X X =.1.` =.;.~ 6._ 5 : 6 7 7 7 : 7 7 5 : 7 5 7 ; 7 7 7 : 7 7 5 > $ ~ ,.~ @.;.} 1.1.X X X X X ",
"X X X X X 7.1.' 1.;.7.1.;.7 1 4 7 7 5 : 5 7 5 : 7 7 7 ; 7 7 7 : 7 7 5 > # 1.,.8.;.;.' 1.1.X X X X X ",
"X X X X X =.;._ #.Q Q ) 3.7 : 4 7 7 5 : 5 5 5 : 7 7 7 ; 5 7 7 : 7 7 7 > $ *.) Q Q ;.) *.w.X X X X X ",
"X X X X X 1.~ { _ ~ _ q.6.7 ; 4 7 7 5 : 5 7 5 : 7 7 7 1 7 5 5 : 7 7 7 > $ 3.7._ ) ) } ) 1.X X X X X ",
"X X X X X ` o._ 1./ [ +.) , - 4 , 5 5 - , , 5 - 5 < 4 - 5 , , - , , , = # ) #._ _ ;.[ o._ X X X X X ",
"X X X X X V V V V V V V F y y y y y y y y y y y y y y i y y y y y y y y u V V V V V V V V X X X X X ",
"X X X X X 6.,.1.1.;.) 1.,.g g g f f g g g g f g g g g d s g g g f g g g a =.;.~ w.1.1.1.1.X X X X X ",
"X X X X X ;.q.) 1.=.6.=.-.5 * k 7 k l 1 l 7 z r 7 l e h l j l ; l 7 7 > # =.,.,.;.;.~ ,.1.X X X X X ",
"X X X X X [ ~ X.=.;.,._ 3.7 ; 6 e 5 r 1 2 e 6 ; 7 e k . 0 j 3 ; 8 7 7 > # ,._ ,.1.#.X.) _ X X X X X ",
"X X X X X ) ) X.7.) *._ %.7 : 4 7 7 5 * 7 7 5 : 7 7 7 : 7 7 5 ; 7 7 5 > # ;.[ 6.) 1.X.) ^ X X X X X ",
"X X X X X ^ _ ;._ #.1.) -.7 : 4 7 7 5 ; 7 7 5 : 7 7 7 ; 5 7 5 * 7 7 5 > # =.) ,.;._ w._ Q X X X X X ",
"X X X X X V V V V V V V C 7 : 2 7 5 7 : 7 7 5 : 7 7 7 ; 7 7 7 ; , 9 5 > % V V V V V V V V X X X X X ",
"X X X X X =.;.} ;.,.;.=.=.7 : 2 7 7 5 : 7 7 5 : 7 7 7 ; 7 7 7 t f f b = $ =.;.=.;.;. .;.1.X X X X X ",
"X X X X X =.,.1.-.4.) 3.6.7 : 2 7 7 7 * 7 7 5 : 7 7 7 * 7 7 # f g f y.> # #.1.) =.;.1.;.1.X X X X X ",
"X X X X X 4.^ o.=.=.e._ ~ 7 : 2 7 5 5 : 7 5 5 ; 7 7 7 1 7 7 7 @ p W < > $ _ _ 1.;.;.o.Q w.X X X X X ",
"X X X X X ;._ o._ *.,._ ~ 7 ; 4 7 7 5 : 7 7 5 : 7 7 7 ; 7 7 7 : 7 7 7 > $ ( ~ *.*._ o.( 1.X X X X X ",
"X X X X X ;.) +.8._ 7.( Q 7 : 2 7 5 5 : 7 7 5 : 5 7 7 ; 7 5 7 : 7 7 7 > $ Q / ,.~ q.+./ w.X X X X X ",
"X X X X X N V V S B B V B c c x c c c v c c c v c c c v c c c v c c c c v V N M V V V V N X X X X X ",
"X X X X X q.,.1.;.,.,.1.%.f f f f g g f g f f f f f f g f f f f g f f f f 1.8.1.=.=.;.1.1.X X X X X ",
"X X X X X _ ;.) ,.=.Q ;.=.7 : 2 5 7 7 : 5 5 5 : 5 7 7 ; 7 7 7 : 7 7 7 > # 4.;.^ #.,.) 1.( X X X X X ",
"X X X X X 7.=.=.;.;.Q ,.3.7 : 2 7 7 5 : 5 5 5 : 7 7 7 ; 7 7 7 : 7 7 7 > # 1.#.Q ;.;.*.1.1.X X X X X ",
"X X X X X ,.)  ._ ,.) ,.=.7 : 3 7 7 5 : 7 7 5 : 7 7 7 ; 7 7 7 : 7 7 7 > # ;.,.~ 7.~  .^ 1.X X X X X ",
"X X X X X =.6._ ) ) Q ~ %.7 : 2 7 7 7 : 7 7 5 : 7 7 7 ; 7 7 7 : 5 7 7 > # =._ _ ) _ ~ 1.*.X X X X X ",
"X X X X X ) ;. .) +.) #.~ 7 ; 2 5 7 7 : 7 7 5 : 7 7 7 ; 7 7 5 : 7 7 5 > # ~ O.) #.~ } *.) X X X X X ",
"X X X X X =.,.7.1.7.1.7.,.7 ; 2 7 7 5 : 7 7 5 : 7 7 7 ; 7 7 7 : 7 7 7 > % 7.1.1.7.1.7.1.=.X X X X X ",
"X X X X X 1.;.} 1.;.) ;.) 7 ; 2 7 7 5 : 7 7 5 : 7 7 7 ; 7 7 7 : 7 7 7 > $ / 1.) 1.;.' 1.=.X X X X X ",
"X X X X X 6.=.} 1.w.=.7.4.5 : 2 7 7 7 : 7 7 5 : 7 7 7 ; 7 7 7 : 7 7 7 > # 8.;.,.#.;.} 1.w.X X X X X ",
"X X X X X 6.w.) 1.) ) _ =.7 ; 4 7 7 5 : 5 5 5 : 7 7 7 : 7 7 7 : 7 7 5 > $ =.) _ ) ;./ =.1.X X X X X ",
"X X X X X 1.) ] ~ _ ~ 6.3.7 : 6 7 7 7 : 5 5 5 * 7 7 7 1 7 7 7 : 7 7 7 > $ 6.9.) ) ) } ) w.X X X X X ",
"X X X X X Q 1.) #.) Q 6.^ w : 4 7 7 5 : 5 7 7 * 7 7 7 1 5 7 7 : 7 7 7 > # / 4.Q _ 1.) 8.( X X X X X ",
"X X X X X X X X X X X X X X X X X X X X X X X X X X X X X X X X X X X X X X X X X X X X X X X X X X ",
"X X X X X X X X X X X X X X X X X X X X X X X X X X X X X X X X X X X X X X X X X X X X X X X X X X ",
"X X X X X X X X X X X X X X X X X X X X X X X X X X X X X X X X X X X X X X X X X X X X X X X X X X "
};
