/* XPM */
static char *c69d2dcbd50e4313df3a8eb7074a7e48Qcn9ZsvBMKd2lyB4[] = {
/* columns rows colors chars-per-pixel */
"50 50 15 1 ",
"  c #262B44",
". c #265C42",
"X c #A1DD94",
"o c #63C64D",
"O c #8C9BB3",
"+ c #C0CCDC",
"@ c #596886",
"# c #3D8947",
"$ c #193D3F",
"% c #171A29",
"& c #1E2236",
"* c #333B4E",
"= c #252A43",
"- c #404A61",
"; c #505D79",
/* pixels */
"                      ...Xoo                      ",
"                     ....Xooo                     ",
" OOO                .....Xoooo                OOO ",
" OO +++++++++++++O ......Xooooo  O++++++++++++ OO ",
" OO +OOOOOOOOOOO@ .......Xooooooo @OOOOOOOOOO+ OO ",
" OO  @@OOOOOOOOO@ #######Xooooooo @OOOOOOOOO@  OO ",
" OO +  @OOOOOOOO@ $$$$$$$.####### @OOOOOOOO@ + OO ",
" OO +@@ @@@@@@@@@  $$$$$$.#####   @@@@@@@@@ @+ OO ",
" OO +OO@            $$$$$.####             @O+ OO ",
" OO +OOO@ %%%%%%%%%% $$$$.### %%%%%%%%%%% @OO+ OO ",
" OO +OOO@ %%%%%%%%%%% $$$.## %%%%%%%%%%%% @OO+ OO ",
" OO +OOO@ %%&&&&&&%%%%  $.# %%%%%&&&&%%%% @OO+ OO ",
" OO +OOO@ %&&&&&&&&&%%%%   %%&&&&&&&&&%%% @OO+ OO ",
" OO +OOO@ %&&&&&&&&&&&&&&&&&&&&&&&&&&&%%% @OO+ OO ",
" OO @@@@@ %&&&&&&&&&&&&&&&&&&&&&&&&&&&&%% @@@@ OO ",
" OO       %&& &&&&&&&&&&&&&&&&&&&&&& &&%%      OO ",
" OO +OOO@ %&    &&&&&&&&&&&&&&&&&&&   &%% @+++ OO ",
" OO +OOO@ %&                          &%% @OO+ OO ",
" OO +OOO@ %&                          &&& @OO+ OO ",
" OO +OOO@ %                            %% @OO+ OO ",
" OO +OOO@ %                            %% @OO+ OO ",
" OO +OOO@ %                            %% @OO+ OO ",
" OO +OOO@ %                            %% @OO+ OO ",
" OO @@@@@ %                            %% @@@+ OO ",
" OO       *                            **      OO ",
" OO ++++@ *                            ** @+++ OO ",
" OO +OOO@ *                            ** @OO+ OO ",
" OO +OOO@ *                            ** @OO+ OO ",
" OO +OOO@ *                            ** @OO+ OO ",
" OO +OOO@ *                            ** @OO+ OO ",
" OO +OOO@ *                            ** @OO+ OO ",
" OO +OOO@ *                            ** @OO+ OO ",
" OO +OOO@ *                            ** @OO+ OO ",
" OO +OOO@ *                            ** @OO+ OO ",
" OO +OOO@ *                            ** @OO+ OO ",
" OO +OOO@ *         ======             ** @OO+ OO ",
" OO +@@@@ *        ==    =             ** @@@+ OO ",
" OO       *        =     ==            **      OO ",
" OO ++++@ *       =       =            ** @+++ OO ",
" OO +OOO@ *       =                    ** @OO+ OO ",
" OO +@@@@ *                            ** @@@+ OO ",
" OO       -*      ***************     ***      OO ",
" OO ++++@ -**    *****************   **** @+++ OO ",
" OO +OOO@ --**************************-** @OO+ OO ",
" OO +OOO@ ;-****-------------------***-;; @OO+ OO ",
" OO +OOO@ ;-*-;;;;;;;;;;;;;;;;;;;;;;-*-;; @OO+ OO ",
" OO +OOO@ ;;-;@@@@@@@@@@@@@@@@@@@@@@;-;;; @OO+ OO ",
" OO +OOO@ ;;;@@@@@@@@@@@@@@@@@@@@@@@@;;;; @OO+ OO ",
" OO +@@@@ ;;@@@@@@@@@@@@@@@@@@@@@@@@@@;;; @@@+ OO ",
"          ;@@@@@@@@@@@@@@@@@@@@@@@@@@@@;;         "
};
