/* XPM */
static char *_48b9a60e40442719cf3959c590e84c4u1QoBENqeTVD55qg[] = {
/* columns rows colors chars-per-pixel */
"50 50 130 2 ",
"   c #78572F",
".  c #795838",
"X  c #57595D",
"o  c #7D6C63",
"O  c #75716C",
"+  c #727B7A",
"@  c #874E0E",
"#  c #85521D",
"$  c #89501D",
"%  c #894F22",
"&  c #85552C",
"*  c #855E3F",
"=  c #94632C",
"-  c #866334",
";  c #86613E",
":  c #88603C",
">  c #926431",
",  c #9D733F",
"<  c #A47735",
"1  c #896441",
"2  c #966F46",
"3  c #956F4A",
"4  c #947042",
"5  c #9D7246",
"6  c #94704B",
"7  c #9D7248",
"8  c #92794F",
"9  c #9C7253",
"0  c #9F7954",
"q  c #967658",
"w  c #A0714A",
"e  c #A27A53",
"r  c #A47F5A",
"t  c #ECB61F",
"y  c #F5AF2E",
"u  c #F9AD2C",
"i  c #F8AC33",
"p  c #F9D71E",
"a  c #F9D81A",
"s  c #EAC92C",
"d  c #F3CF2D",
"f  c #FBD426",
"g  c #FAD529",
"h  c #A0825C",
"j  c #AB845C",
"k  c #A98662",
"l  c #AE8963",
"z  c #B38C64",
"x  c #BA916C",
"c  c #EDB34A",
"v  c #F1B146",
"b  c #F3B34B",
"n  c #ECCE6A",
"m  c #0277BD",
"M  c #5C7385",
"N  c #59778E",
"B  c #5B7B8B",
"V  c #597692",
"C  c #557C93",
"Z  c #5C7C93",
"A  c #567E9A",
"S  c #597E9B",
"D  c #647A8D",
"F  c #617C95",
"G  c #637D9B",
"H  c #57808A",
"J  c #568597",
"K  c #56819F",
"L  c #75858D",
"P  c #62819C",
"I  c #68849E",
"U  c #748694",
"Y  c #6C88A3",
"T  c #678AA8",
"R  c #829FB9",
"E  c #83A3BC",
"W  c #FFFFB6",
"Q  c #85A5C3",
"!  c #8BA6C5",
"~  c #85A9C6",
"^  c #8AA9C6",
"/  c #85A7CA",
"(  c #8AA7C8",
")  c #85AACA",
"_  c #8AABCA",
"`  c #8EB1CD",
"'  c #95B2CE",
"]  c #98B4CE",
"[  c #8AADD0",
"{  c #8AB0D0",
"}  c #94B4D2",
"|  c #99B6D5",
" . c #97B8D7",
".. c #9CB9D6",
"X. c #99B7D8",
"o. c #9EBCDC",
"O. c #A8BFD7",
"+. c #A2BEDA",
"@. c #AABFE0",
"#. c #A5C3DE",
"$. c #ABC3DE",
"%. c #A7C9DB",
"&. c #B1C3DE",
"*. c #A5C5E3",
"=. c #A9C5E2",
"-. c #ABC5E2",
";. c #ADC6E1",
":. c #ADC4E3",
">. c #AEC4E2",
",. c #AAC5E4",
"<. c #A8C6E4",
"1. c #A9C6E5",
"2. c #AAC7E7",
"3. c #AEC7E5",
"4. c #A6C9E2",
"5. c #AEC9E1",
"6. c #AAC9E5",
"7. c #AAC8E6",
"8. c #ADCAE7",
"9. c #ADC6EA",
"0. c #AEC7EB",
"q. c #ABCAE8",
"w. c #ACCAE8",
"e. c #B1C3E4",
"r. c #B0CAEA",
"t. c #B1CAEA",
"y. c #C1C9CF",
"u. c #DDEDFA",
"i. c #DFEFFC",
"p. c #FEFCFF",
/* pixels */
"X X X X X X X X X X X X X X X X X X X X X X X X X X X X X X X X X X X X X X X X X X X X X X X X X X ",
"X X X X X X X X X X X X X X X X X X X X X X X X X X X X X X X X X X X X X X X X X X X X X X X X X X ",
"X X X X X X X X X X X X X X X X X u.u.u.i.u.u.u.u.u.u.u.u.u.u.u.i.X X X X X X X X X X X X X X X X X ",
"X X X X X X X X X X X X X X X X U ;.;.-.;.;.-.*.+.+.>.Q ;.3.,.Q $.L X X X X X X X X X X X X X X X X ",
"X X X X X X X X X X X X X X m Z ;.,.;.-.$.) -.$.+.+.) ;.9.:.:.:.9.=.V m X X X X X X X X X X X X X X ",
"X X X X X X X X X X X X m D -.-.-.*.#.e.6.^ -.) +.+.8.,.3.:.:.*.-.-.*.#.D X X X X X X X X X X X X X ",
"X X X X X X X X X X X B #.-.Z Z Z Z Z I -.8.^ Q +.E t.;.3...I V Z F Z Z C -.C X X X X X X X X X X X ",
"X X X X X X X X X X J 7.*.,.,.,.;._ } V -.) ^ ~ Q Q q.;.^ o.V ] ) ;.,.*.-.*.&.S X X X X X X X X X X ",
"X X X X X X X X m Y 3.^ -.,._ Q w.-.;.E E *._ ;.^ Q ,.) q.R E -.e.w.^ _ ,.-.^ *.T X X X X X X X X X ",
"X X X X X X X m Z Z Z Z Z *.-.5.` Q 3.;.Z V Z N B Z Z Z V Z -.-.^ } :.,.8.Z Z Z Z Z y.X X X X X X X ",
"X X X X X X X $.:.3.;.3.I Z ,.) _ ;.5.O 5 5 5 : 7 7 7 ; 7 5 o -.;.! ( ;.Z G ;.>.;.;.5.X X X X X X X ",
"X X X X X X D  .) _ ;._ ,.Z -.$.[ ] 8 * 7 5 5 : 7 7 7 ; 7 7 ,   } _ 3.#.Z ;._ 3.) )  .M X X X X X X ",
"X X X X X P ;.} -.>.^ -.,.-.Z S q 7 7 : 7 7 5 : 7 7 7 ; 7 7 7 * 7 & Z S ;.-.-.^ 8.;.X.*.G X X X X X ",
"X X X X X -.)  ._ ,.) ,.-.3.S 2 7 7 5 : 7 5 5 : 7 7 7 ; 7 7 7 * 7 5 % K 8.e.#.) ,.) | _ ,.X X X X X ",
"X X X X X 9.7.) _ ) Q ) -.+ ; 2 7 7 5 : 7 7 5 : 7 7 7 1 7 7 5 : 7 7 9 > B -.^ _ ~ ) ) 7.,.X X X X X ",
"X X X X X ) 8.X.) ,./ *.^ 7 ; 2 7 7 7 : 7 7 5 : 7 7 7 : 7 5 5 : 5 5 5 > # / #./ ,.) | 8./ X X X X X ",
"X X X X X Y Y Y Y Y Y Y T 7 * 7 7 7 5 : 5 7 5 : 7 5 7 1 7 7 7 * 7 7 7 > % Y Y Y Y Y Y Y Y X X X X X ",
"X X X X X 5.e.{ -.-.^ ,.^ 5 ; 2 7 7 5 : 7 7 5 : 7 7 7 ; 7 7 5 : 7 7 7 = # ~ ;.~ @.,.' -.;.X X X X X ",
"X X X X X -.-.' ,.;.7.3.7.7 : 2 7 5 7 ; 7 7 5 : 7 7 7 ; 7 7 7 : 7 7 7 > # w.-.9.-.:.' >.3.X X X X X ",
"X X X X X -.*._ -.Q Q ) 4.5 1 4 7 7 5 : 5 5 5 : 7 7 7 ; 7 5 7 : 7 7 7 > $ *.) Q Q :.) *.e.X X X X X ",
"X X X X X 8.^ _ ( ) _ 7.4.7 : 4 7 7 5 ; 7 5 5 : 7 7 7 1 7 7 7 * 5 5 7 > $ 4.7._ ) _  .) 3.X X X X X ",
"X X X X X _ o._ -./ ` +.) 5 - 4 , , 5 - < 5 5 - , , 4 - , < , : , 5 , = # ) #._ ) >._ o._ X X X X X ",
"X X X X X Z Z Z Z Z Z Z H y y y y y y y y y y y y y y i y y y y y y y y u Z Z Z Z Z Z Z Z X X X X X ",
"X X X X X 7.,.3.,.-./ 8.7.g g g g g f g g g g g f g g d s g g g f g f g a 7.-.^ >.>.,.,.,.X X X X X ",
"X X X X X ;.w.) 3.-.,.-.4.7 : l 7 l z 1 z 7 x r 7 z 0 h z j z ; z 7 7 > # 8.-.,.;.3.) ,.3.X X X X X ",
"X X X X X [ ^ X.-.;.7._ 7.7 * 2 0 5 r 1 3 0 7 ; 7 e k . e j 6 ; 6 7 7 > # 5._ ,.3.+.X.) _ X X X X X ",
"X X X X X ) /  .-.) *._ #.7 : 2 7 7 5 ; 7 7 5 : 7 7 w : 7 7 5 : 7 7 6 > # ;._ q.) 3.X.) ^ X X X X X ",
"X X X X X ~ _ ,._ #.8.) %.5 : 4 7 7 5 ; 7 7 5 : 7 7 7 ; 7 7 5 : 7 7 7 > # -.) ,.;._ :.( ~ X X X X X ",
"X X X X X Z Z Z Z Z Z Z A 7 : 2 5 7 5 * 7 7 5 : 7 7 7 ; 7 7 7 ; , 9 5 > % Z Z V Z V Z Z Z X X X X X ",
"X X X X X 5.;.} ;.-.;.-.7.7 : 2 7 7 5 : 7 7 5 : 7 7 7 ; 5 7 6 t f f n = $ ,.-.>.>.;. .;.:.X X X X X ",
"X X X X X 7.-.8.-.7.) 4.,.7 : 2 7 7 5 : 5 7 5 : 7 7 7 1 7 7 # f f f p.> # %.>.) =.;.;.3.:.X X X X X ",
"X X X X X ;.^ o.,.5.w._ ~ 7 : 2 7 7 5 : 7 7 5 ; 7 7 7 : 5 7 w @ p W < > $ _ _ 3.;.;.o.Q e.X X X X X ",
"X X X X X ,.^ o._ *.,.) ^ 7 ; 2 7 7 7 : 7 7 5 : 7 7 7 : 7 7 7 : 7 7 7 > $ ( ) ,.*.( o.! e.X X X X X ",
"X X X X X 3.) +.w.) w.( ~ 5 ; 2 7 6 7 : 7 7 5 : 7 7 7 : 7 7 7 : 7 7 7 > $ Q Q w.) 7.o._ e.X X X X X ",
"X X X X X V Z Z F C V Z V c v c v v v b v v v b v v v c v v v b v v v v b V V B Z Z C V Z X X X X X ",
"X X X X X ;.3.,.3.-.,.-.%.f f f f f f f f f f f f f f f f f f f f f f f f 8.,.3.-.-.;.3.-.X X X X X ",
"X X X X X ^ ,.) 7.-.Q 3.%.7 ; 4 7 7 5 : 5 5 5 : 7 7 7 ; 7 7 7 : 7 7 7 > # 5.;.^ -.,.) e.! X X X X X ",
"X X X X X 8.-.-.-.;.Q ;.7.5 : 2 7 7 5 : w 5 5 : 7 7 7 ; 7 7 7 : 7 7 7 > # 7.*.E -.$.-.9.:.X X X X X ",
"X X X X X -._  ._ ,.) $.7.7 : 2 7 7 7 : 7 7 5 : 7 7 7 ; 7 7 7 : 7 7 7 > # ;.,.^ 7.^  .Q :.X X X X X ",
"X X X X X -.7._ / ^ Q Q 7.7 : 2 7 7 5 : 7 7 5 : 7 7 7 ; 7 7 7 : 7 7 7 > # $._ _ ~ ) ) ,.*.X X X X X ",
"X X X X X ) -.} ) #./ *.Q 7 : 4 7 7 5 : 5 7 5 : 7 7 7 ; 5 7 w : 7 7 7 > # ~ O./ *.~ } ,.~ X X X X X ",
"X X X X X 3.3.8.8.-.3.3.,.6 : 6 7 7 7 ; 7 7 5 : 7 7 7 ; 7 5 5 * 7 7 7 > % 3.w.3.8.7.8.,.,.X X X X X ",
"X X X X X ,.;.} -.;.) ;.) 7 : 5 7 7 7 : 7 7 5 : 7 7 7 1 7 7 7 : 7 5 7 > $ / e.) #.3.' :.8.X X X X X ",
"X X X X X 7.-.} 3.;.,.3.8.7 : 4 7 7 5 : 7 7 5 : 7 7 7 : 7 7 7 : 7 7 7 > # 9.;.*.$.;.} ;.3.X X X X X ",
"X X X X X ,.;.) -.) ~ _ 4.7 : 4 7 7 5 : 7 5 5 : 7 7 7 ; 7 7 5 : 7 7 7 > $ 5.) _ ) >.) 3.>.X X X X X ",
"X X X X X -._ } ^ ) ) 7.4.7 ; 7 7 7 5 : 7 5 5 : 7 7 7 ; 7 7 7 : 7 7 7 > # 7.7.) ^ / } ) >.X X X X X ",
"X X X X X / ,.~ -./ Q 3.^ 7 * 2 7 7 5 : 7 7 5 * 7 7 7 1 7 7 7 : 5 7 7 > % / -.Q ) ,.) 9.Q X X X X X ",
"X X X X X X X X X X X X X X X X X X X X X X X X X X X X X X X X X X X X X X X X X X X X X X X X X X ",
"X X X X X X X X X X X X X X X X X X X X X X X X X X X X X X X X X X X X X X X X X X X X X X X X X X ",
"X X X X X X X X X X X X X X X X X X X X X X X X X X X X X X X X X X X X X X X X X X X X X X X X X X "
};
