/* XPM */
static char *result[] = {
/* columns rows colors chars-per-pixel */
"50 50 5 1 ",
"  c #57595D",
". c #FF5722",
"X c #F44336",
"o c #FFEB3B",
"O c #F7E55B",
/* pixels */
"                                                  ",
"                                                  ",
"                X                                 ",
"              XXXXX                               ",
"                XXX                               ",
"              X  XX                               ",
"       XX        XXX  X     X                     ",
"       XX        XXXX                             ",
"     XXXXX       XXXX X   XX X                    ",
"   X XXXXX      XXXXX X    X  X                   ",
"     XXXXX      XXXXXX     XXX                    ",
"     XXXXX X    XXXXX      XXXX                   ",
"     XXXX       XXXXXX     XXXXXX       XXXXX     ",
"     XXXX       XXXXXX      XXXXX       XXXXX     ",
"    XXXXX       XXXXXX      XXXXXX      XXXXX     ",
"    XXXXXXXX  XXXXXXXX      XXXXXXX     XXXX      ",
"    XXXXXXXX  XXXXXXX       XXXXXXX    XXXXX      ",
"     XXXXXXXXXXXXX.XX       XXXXXXX    XXXXX      ",
"     XXXX.XXXXXXXX.XX       XXXXXXX    XXXXX      ",
"      XXX..XXXXXX..XX       XXX.XXX   XXXXXX      ",
"       XXX...XXX...XX       XXX.XXX   XXXXX       ",
"       XXXX...XX....X       XX..XXX   XXX.X       ",
"       XXXXX...X....XXX     X...XXXXXXXX..X       ",
"       XXXXX.........XX     X...XXXXXXX..XX       ",
"       XXXXX..........XXXXXX.......XX....XX       ",
"       XXXXX...........XXXXX............XXX       ",
"      XXXXXX....o.......XXXX...........XXX        ",
"     XXXXXX.....oo..ooo.....oo.....o...XXX        ",
"     XXXXX......ooo.ooo..oo.ooo...oo..XXX         ",
"    XXXXX.......oooooooooooooooo.ooo..XXX         ",
"   XXXXX........oooooooooooooooooooo..XXX         ",
"   XXXXX.......ooooooooooooooooOOOo...XXXX        ",
"   XXXXX......oooooOOOOOOOOOoOOOOooo..XXXX        ",
"   XXXXXX.....oooooOOOOOOOOOOOOOOooo..XXXX        ",
"   XXXXXXX....ooooOOOOOOOOOOOOOOOoooo.XXXX        ",
"    XXXXXX....ooooOOOOOOOOOOOOOOOoooo.XXX         ",
"    XXXXXX....ooooOOOOOOOOOOOOOOOoooo.XXX         ",
"    XXXXXXX....oooOOOOOOOOOOOOOOooooo..XX         ",
"     XXXXXX....ooooOOOOOOOOOOOOOoooooX.XX         ",
"     XXXXXXX...ooooOOOOOOOOOOOOooooo..XXX         ",
"      XXXXXX....ooooooooooooooooooo...XXX         ",
"      XXXXXXX.....oooooooooooooooo..XXXX          ",
"       XXXXXXX.....................XXXX           ",
"       XXXXXXXXX..................XXXXX           ",
"        XXXXXXXXXXXXXXXXXXXXXXXXXXXXXX            ",
"          XXXXXXXXXXXXXXXXXXXXXXXXXXX             ",
"               XXXXXXXXXXXXXXXXXXXX               ",
"                                                  ",
"                                                  ",
"                                                  "
};
