/* XPM */
static char *result[] = {
/* columns rows colors chars-per-pixel */
"50 50 5 1 ",
"  c #57595D",
". c #FF5722",
"X c #F44336",
"o c #FFEB3B",
"O c #E6EE9C",
/* pixels */
"      ...                 ...           ..        ",
"      .o.       XXX       .o..         ....       ",
"      ...       XXX       ..o.  ..     .o..       ",
"  ..          XX...XX      ...  .o.   .oo.        ",
"  ...         XX...XX           ..o   .o..        ",
"  .o.         XX...XX            ..   ...         ",
"  ...  XX     XX.....XX     XXX                   ",
"       XX     XX.....XX     XXX                   ",
"     XX..XXX    XXX..XX   XX...XX                 ",
"   XXXX..XXX    XXX..XX   XX...XX                 ",
"  XXX....XXX    XXX..XX   XX...XX                 ",
"  XXX....XXX    XXX..XX   XX...XX                 ",
"  XXX..XX       XXX..XX   XX.....XX     XXXXXXX   ",
"  XXX..XX       XXX..XX   XX.....XX     XXXXXXX   ",
"  XXX..XX       XXX..XX   XX.....XX     XXXXXXX   ",
"  XXX....XXX  XX.....XX     XXX..XX   XX.....XX   ",
"  XXX....XXX  XX.....XX     XXX..XX   XX.....XX   ",
"   XXXX.....XX.....XX       XXX..XX   XX..XXX     ",
"    XXX.....XX.....XX       XXX..XX   XX..XXX     ",
"    XXXXX..........XX       XXX..XX   XX..XXX     ",
"       XX..........XX       XXX..XX   XX..XXX     ",
"       XX..........XX       XXX..XX   XX..XXX     ",
"       XX............XX     XXX..XXXXX....XXX     ",
"       XX............XX     XXX..XXXXX....XXX     ",
"       XX.....oo.....XXXXXXX..............XXX     ",
"       XX.....oo.....XXXXXXX..............XXX     ",
"     XX.......oo...................ooo..XX        ",
"     XX.......oo...................ooo..XX        ",
"     XX.......oo...................ooo..XX        ",
"  XXX.........ooooo..oo...oo...ooooooo..XX        ",
"  XXX.........ooooo..oo...oo...ooooooo..XX        ",
"  XXX.......ooooooooooooooooooooooo.......XXX     ",
"  XXX.......ooooooooooooooooooooooo.......XXX     ",
"  XXX.......ooooooooooooooooooooooo.......XXX     ",
"  XXX.......ooooooooooooooooooooooo.......XXX     ",
"  XXX.......oooooooooOOOOOOOOOOoo.........XXX     ",
"  XXX.......oooooooooOOOOOOOOOOoo.........XXX     ",
"  XXX.......oooooooooOOOOOOOOOOoo.........XXX     ",
"  XXX.......oooooooOOOOOOOOOOOOoooo.......XXX     ",
"  XXX.......oooooooOOOOOOOOOOOOoooo.......XXX     ",
"     XX.......ooooooooooooooooooooo.....XX        ",
"     XX.......ooooooooooooooooooooo.....XX        ",
"       XX.............................XX          ",
"       XX.............................XX          ",
"       XX.............................XX          ",
"         XXXXXXXXXXXXXXXXXXXXXXXXXXXXX            ",
"         XXXXXXXXXXXXXXXXXXXXXXXXXXXXX            ",
"                                                  ",
"                                                  ",
"                                                  "
};
