/* XPM */
static char *result[] = {
/* columns rows colors chars-per-pixel */
"50 50 5 1 ",
"  c #57595D",
". c #FF5722",
"X c #F44336",
"o c #FFEB3B",
"O c #E6EE9C",
/* pixels */
"                                                  ",
"                                                  ",
"                                                  ",
"              XXX                                 ",
"              X.XX                                ",
"              X..X                                ",
"       XX     X..XX                               ",
"       XX     XX..X     XXX                       ",
"     XX..X      X.XX    X.XX                      ",
"   XXXX..X      X..XX    X.XX                     ",
"  XXX....X      X...X    XX.XXX                   ",
"  XX.....X      X....X    X...XX                  ",
"  X....XX       X....X    X....XX    X            ",
"  X....XX       X....X    X.....X    XXX          ",
"  X....XX       XX...X    XX....X    XXXX         ",
"  XX.....XXX  XXX....X      X...XX    XXXX        ",
"  XX.....XXX  XX.....X      X....X    XX.XX       ",
"   XX.......XX......X       X....X    XX..X       ",
"    XX......XX......X       X....X    XX..X       ",
"    XX.............XX       X....X    XX..XX      ",
"    XX.............XX       XX...XX   XX..XX      ",
"    XX..............X       XX...XX   XX..XX      ",
"    XX....oo.........XX     XX....XXXX....XXX     ",
"    XX.....ooo.......XX     X.......XX....XXX     ",
"    XX.....oooo......XXXXXXX..............XXX     ",
"    XX.....ooooo......XXX........o........XXX     ",
"    XX.....ooooooo.............ooo......XX        ",
"    X.......ooooooo.........ooooooo.....XX        ",
"    X.......ooOOOOOoooooooooooooooo.....XX        ",
"  XXX.......ooOOOOOOOooooOOOOoooooooo...XX        ",
"  XX.......oooOOOOOOOOOOOOOOOOOOoooo....XX        ",
"  X.......oooOOOOOOOOOOOOOOOOOOOooo.......XXX     ",
"  X.......oooOOOOOOOOOOOOOOOOOOOooo........XX     ",
"  X......ooooOOOOOOOOOOOOOOOOOOOooo........XX     ",
"  X......ooooOOOOOOOOOOOOOOOOOOooo..........X     ",
"  X......ooooOOOOOOOOOOOOOOOOOOoo...........X     ",
"  X......ooooOOOOOOOOOOOOOOOOOOoo...........X     ",
"  XX......ooooOOOOOOOOOOOOOOOOOoo..........XX     ",
"  XX.......oooOOOOOOOOOOOOOOOOOooo.........XX     ",
"  XXX.......oooooOOOOOOOOOOOOOOooo........XXX     ",
"     XX.......oooooooooooooooooooo......XX        ",
"     XX.......ooooooooooooooooooo.......XX        ",
"       XX.........oooooooooo..........XX          ",
"       XX.............ooo.............XX          ",
"       XX.............................XX          ",
"         XXXX....XXXXXXXXX.....XXXXXXX            ",
"         XXXXXXXXXXXXXXXXXXXXXXXXXXXXX            ",
"                                                  ",
"                                                  ",
"                                                  "
};
