/* XPM */
static char *f0b5ee32b1524fb9c9d6e9145de545d8q0nJ3PducwZzp7JG[] = {
/* columns rows colors chars-per-pixel */
"50 50 5 1 ",
"  c #596886",
". c #353540",
"X c #CA5954",
"o c #EDE4DA",
"O c #EEB551",
/* pixels */
"          ...................                     ",
"          ...................                     ",
"        .....XXXXXXXXXXXXXX.....                  ",
"        .....XXXXXXXXXXXXXX.....                  ",
"        ..XXX......XXXXXXXXXX...                  ",
"        ..XXX......XXXXXXXXXX...                  ",
"        ..XXX......XXXXXXXXXX...                  ",
"        .............XXXXXX.............          ",
"        .............XXXXXX.............          ",
"        .............XXXXXX.............          ",
"             ...ooooooooOOOOOOOOOOOOOO..          ",
"             ...ooooooooOOOOOOOOOOOOOO..          ",
"             ...ooooooooOOOOOOOOOOOOOO..          ",
"             ...ooo........................       ",
"             ...ooo........................       ",
"             ...OOO..ooooooooOOOOOOOOOOO...       ",
"             ...OOO..ooooooooOOOOOOOOOOO...       ",
"             ...OOO..ooooooooOOOOOOOOOOO...       ",
"             ...OOO..ooo...OO...OOO...OO...       ",
"             ...OOO..ooo...OO...OOO...OO...       ",
"             ...OOO..ooo...OO...OOO...OO...       ",
"             ...OOO..OOO...OO...OOO...OO...       ",
"             ...OOO..OOO...OO...OOO...OO...       ",
"             ...OOO..OOO...OO...OOO...OO...       ",
"             ...OOO..OOO...OO...OOO...OO...       ",
"             ...OOO..OOO...OO...OOO...OO...       ",
"             ...OOO..OOOOOOOOOOOOOOOOOOO...       ",
"             ...OOO..OOOOOOOOOOOOOOOOOOO...       ",
"             ...OOO..OOOOOOOOOOOOOOOOOOO...       ",
"             ...OOO........................       ",
"             ...OOO........................       ",
"             ...OOO........................       ",
"             ...OOOOOOOOOOOOOOOOOOOOOO..          ",
"             ...OOOOOOOOOOOOOOOOOOOOOO..          ",
"             ...OOOOOOOOOOOOOOOOOOOOOO..          ",
"             ...OOOOOOOOOOOOOOOOOOOOOO..          ",
"             ...OOOOOOOOOOOOOOOOOOOOOO..          ",
"             ...OOOOOOOOOOOOOOOOOOOOOO..          ",
"             ...OOOOOOOOOOOOOOOOOOOOOO..          ",
"             ...OOOOOOOOOOOOOOOOOOOOOO..          ",
"             ...OOOOOOOOOOOOOOOOOOOOOO..          ",
"             ...OOOOOOOOOOOOOOOOOOOOOO..          ",
"             ...OOOOOOOOOOOOOOOOOOOOOO..          ",
"             ...OOOOO...........OOOOOO..          ",
"             ...OOOOO...........OOOOOO..          ",
"             ...OOOOO...........OOOOOO..          ",
"             ...OOO.....     ...OOO.....          ",
"             ...OOO.....     ...OOO.....          ",
"             ........        .........            ",
"             ........        .........            "
};
