/* XPM */
static char *result[] = {
/* columns rows colors chars-per-pixel */
"50 54 199 2 ",
"   c #000001",
".  c #00000C",
"X  c #0F000F",
"o  c #160000",
"O  c #000014",
"+  c #01011B",
"@  c #08081F",
"#  c #100011",
"$  c #17061A",
"%  c #1F131F",
"&  c #2D0000",
"*  c #27000E",
"=  c #340008",
"-  c #240217",
";  c #0A0624",
":  c #0D0F22",
">  c #120B25",
",  c #0B1124",
"<  c #121224",
"1  c #1A1A29",
"2  c #2A1522",
"3  c #2C1A25",
"4  c #381B2D",
"5  c #231533",
"6  c #3D2329",
"7  c #282934",
"8  c #2A2B36",
"9  c #352237",
"0  c #302C32",
"q  c #373438",
"w  c #39343A",
"e  c #3E3A3D",
"r  c #440000",
"t  c #4B0000",
"y  c #42151F",
"u  c #690000",
"i  c #730E0E",
"p  c #6F0510",
"a  c #6B3315",
"s  c #412528",
"d  c #5F2A2A",
"f  c #422A36",
"g  c #652A2A",
"h  c #632C2C",
"j  c #762929",
"k  c #6D302E",
"l  c #6C3131",
"z  c #763333",
"x  c #7A3535",
"c  c #7D3A3B",
"v  c #006B00",
"b  c #36532A",
"n  c #3A443B",
"m  c #7B4D3E",
"M  c #4B753A",
"N  c #153141",
"B  c #392142",
"V  c #253947",
"C  c #2A3C49",
"Z  c #3E3C45",
"A  c #313F4A",
"S  c #413D43",
"D  c #793C41",
"F  c #34404B",
"G  c #3C414A",
"H  c #344652",
"J  c #464246",
"K  c #464549",
"L  c #4A464A",
"P  c #4E4B4E",
"I  c #514C4E",
"U  c #4B4B52",
"Y  c #524E51",
"T  c #584957",
"R  c #4E5852",
"E  c #545154",
"W  c #5B5557",
"Q  c #53565C",
"!  c #5A5659",
"~  c #56585D",
"^  c #5C5A5D",
"/  c #7D4142",
"(  c #65514D",
")  c #795A4A",
"_  c #61585E",
"`  c #7C5A52",
"'  c #5B6C56",
"]  c #7C685E",
"[  c #555D63",
"{  c #5C5D62",
"}  c #615B64",
"|  c #645A66",
" . c #576067",
".. c #5E6062",
"X. c #5C636A",
"o. c #646265",
"O. c #686364",
"+. c #64646A",
"@. c #6A646A",
"#. c #67686E",
"$. c #6B6A6D",
"%. c #6D736B",
"&. c #7E726F",
"*. c #636B71",
"=. c #6D6D71",
"-. c #716E72",
";. c #747276",
":. c #7B7576",
">. c #74767A",
",. c #787879",
"<. c #7B7B7D",
"1. c #8D5237",
"2. c #BA4537",
"3. c #A86335",
"4. c #BA6C3B",
"5. c #CA432E",
"6. c #D2432B",
"7. c #D04C34",
"8. c #824140",
"9. c #875A49",
"0. c #995745",
"q. c #8B5C5C",
"w. c #8F6751",
"e. c #8E6954",
"r. c #97715C",
"t. c #9B735D",
"y. c #AA6746",
"u. c #B36B44",
"i. c #B26E4A",
"p. c #AF724E",
"a. c #BA744E",
"s. c #AD7251",
"d. c #B67350",
"f. c #BB7A54",
"g. c #936B6A",
"h. c #8B756B",
"j. c #977A76",
"k. c #D75A47",
"l. c #CD7954",
"z. c #3D8100",
"x. c #478E0B",
"c. c #52A016",
"v. c #648555",
"b. c #6A8161",
"n. c #83997B",
"m. c #B18163",
"M. c #B9896B",
"N. c #8EB47F",
"B. c #DB8D5C",
"V. c #E0915F",
"C. c #D88C68",
"Z. c #C28F70",
"A. c #DE8F72",
"S. c #DE9E76",
"D. c #DA9B79",
"F. c #E39B6D",
"G. c #E29A74",
"H. c #DDA27C",
"J. c #E1A077",
"K. c #E3A37C",
"L. c #E9A77D",
"P. c #858486",
"I. c #878689",
"U. c #898789",
"Y. c #8A8A8C",
"T. c #958A86",
"R. c #8E8E91",
"E. c #8F9295",
"W. c #929395",
"Q. c #9C9B9C",
"!. c #A28282",
"~. c #B89986",
"^. c #93AA8B",
"/. c #96B08C",
"(. c #BFA08C",
"). c #A5A6A8",
"_. c #ABABAD",
"`. c #AEAFB1",
"'. c #AFAFB2",
"]. c #B5B5B6",
"[. c #B6B6B9",
"{. c #BBB9B9",
"}. c #BCBCBE",
"|. c #DEA581",
" X c #E0A682",
".X c #E6AB85",
"XX c #E7AC87",
"oX c #EAB999",
"OX c #C1BCBA",
"+X c #EBBEA1",
"@X c #EEC5AA",
"#X c #C2C2C2",
"$X c #C5C7CA",
"%X c #CBCCCC",
"&X c #D1D1D2",
"*X c #E3E3E3",
"=X c #EBE6E7",
"-X c #EFECEC",
";X c #FCFDFD",
/* pixels */
"E E E E E E E E E E E E E Y E E E E E E E E E E E E E E E E E E E E E E E Y E E E E E E E E E E Y E ",
"E E E E E E E E E E E E E E E E E E E E E E E E E E E E E E E E E E E E E E E E E E E E E E E E E E ",
"E E E E E E E E E E E E E E E E E E E E E E E E E E E E E E E E E E E E E E E E E E E E E E E E E E ",
"E E E E E E E E E E E E E E E E E E E E E E E E E E E E E E E E E E E E E E E E E E E E E E E E E E ",
"E E E E E E E E E E E E E Y E E E E E E E E E E E E E E E E E E E E E E Y E E E E E E E E E E E E E ",
"E E E E E E E E E E E E E E E E E E E E E E E E E E W E E E E E E E E E E E E E E E E E E E E E E E ",
"E E E E E E E E E E E E E E E E E E Y E E E U Y I U P U P E E E E E E E E E E E E E E E E E E E E E ",
"E E E E E E Y E E E E E E E E E E E E E Y E O.O.O.O.O.O.O.E E E E E E E E E E E E E Y E E E E E E E ",
"E E E E Y E E E E E E E E E E E E E E E Y O. . . . . .[ *.,.P E E E E E E E E E E Y E E E E E E E E ",
"E E E E E E E E E E E E E E E E E E E E $.$.~.m.m.m.m.m.m.O.~ Y E E E E E E E E E E E E E E E E E E ",
"E E E E E E E E E E E E E E E E E E E U O.(.oXXX.XXXXXXXXXM._ =.E E E E E E E E E E E E E E E E E E ",
"E E E E E E E E E E E E E E E E E Y ;.%.(.oXH.H.K.|.|.H.K.XXM.&.U E E E E E E E E E E E E E E E E E ",
"E E E E E E E E E E E E E E E E E E ;.] oXH.|.|. XA.A. X XH.XX) F W E E E E E E E E E E E E E E E E ",
"Y E E E E E E E E E E E E Y E E E I >.` H.|.XX|.H.k.k.G.H.XX.X) G W E E E E E E E E E E E E E E E E ",
"E E E E E E E E E E E E E E E E E Y >.( .XH.M.|.K.7.6.7.H.M.H.` A W E Y E E E E E E E E E E Y E E E ",
"E E E E E E E E E E E E E E E E E R ;.m..XM., |.H.7.6.6.H.q Z.e.A W E E E E E E E E E E E E E E E E ",
"E E E E E E E E E E E E E E E E W A m J.l.|.g.S.l.5.6.7.G.t.D.9.F W E E E E E E E E E E E E E E E E ",
"E E E E E E E E E E E E E E E E E Q h.y.9..XS.f.2.2.2.2.k.D..X) A E E E E E E E E E E E E E E E E E ",
"E E E Y E E E E E E E E E E E E Y ! P.1 0.D.a.u t t t t r y.D.9.{ $.E E E E E E E E E E E E E E E E ",
"E E E E E E E E E E E E E E E E ^ K | w 1.l.D j.!.!.!.!.!./ d.0.f ..Y E E E E E E E E E E E E E E E ",
"E E E E E E E E E E E E E E P ^ <.=.Q 4 x p g.;X;X;X;X;X;X!.u c y E =.o.Y E E E E E E E E E E E E E ",
"E E E E E E E E E E E E E Y $.O.R.&X].& c j q.*X;X;X;X;X-Xj.i 8.& _.Q.,.@.Y E E E E E E E E E E E E ",
"E E E E E E E E E E E E E W $.I.$X{.Q.= x x j q.=X-X-X-Xg.i c c = W.%XR.S ! E E E E E E E E E E E E ",
"E E E E E E E E E E E E E ^ @.;.OX].Y.- k x z x / c / / x z x l * P.}.<.0 ! Y Y E E E E E E E E E E ",
"E E E E E E E E E E E E E W *.e.XXH.f.> k x z h z j g k x g z k ; s. Xr.V _ Y W E E E Y E E E E E E ",
"E E E E E E E E E E E E E W *.e..XH.f.< h g z h x x h x x g h h > p.L.r.V W Y Y E E E E E E E E E E ",
"E E Y E E E E E Y E E E Y ! *.e.XXS.f.> h d h h h h h h h h h h > i.L.r.V _ I W E E E E E E E E E E ",
"E E E E E E E E E E E E E ! *.w..XH.f.4 6 h d h h d d d d d h s 5 d.L.r.V W Y Y E E E E E E E E E E ",
"E E E E E E E E E E E E E ! *.0..XK.a.^ Y.$ 2 2 2 2 2 2 2 3 o U.| i.L.r.V ! Y E E E E E E E E E E E ",
"E E E E E E E E E E E E E E +.n.+XS.a.| ).W.W.W.W.W.W.W.W.E.E.).+.u.L.r.V W E E E E E E E E E E E E ",
"E E E E E Y E E E E E E Y o.X.j.@XG.a.T ).[.[.].].].].[.].].]._.} i.L.r.V W E E E E E E E E E E E E ",
"E E E E E E E E E E E E ! ~ T.oX XC.f._ _.[.[.[.[.[.[.[.[.[.[._.| i.F.w.C W Y E E E E E E E E E E Y ",
"E E E E E E E E E E E E ! N r.K.C.B.4.I ).[.].].].[.[.[.].].]._.{ d.B.1.H W E E E E E E E E E E E E ",
"E E E E E Y E E E E E Y W H 1.V.V.u.` W.].}.}.}.}.[.[.}.}.}.}.`.} u.3.:.;.I E E E E E E E E E E E E ",
"E E E E E E E E E E E E E ~ h.9.1./ } Y.I.Y.Y.Y.Y.Y.Y.Y.Y.P.Y.U.U a ( { E E E E E E E E E E E E E E ",
"E E E E E E E E E E E E E E %.*.X.S @.L $                 $ P o.w X.O.L E E E E E E E E E E E E E E ",
"E E E E E E E E E E E E E E Y W O.J O.S ^ #X}.}.}.#X#X}.#X^ f $.S @.E E E E E E E E E E E E E E E E ",
"E Y E E E E E E E E E E E E E E } S @.0 <.;X;X;X;X;X;X;X;X<.0 $.K } E E E E E E E E E E E E E E E E ",
"E E E E E E E E E E E ^ ! E ! ! o.Z | 9 ,.;X;X;X;X;X;X-X;X,.9 | B O.E E ^ E W ^ E E E E E E E E E E ",
"E E E E E E E E E E e X J J X e | n v.b ,.;X;X;X;X;X;X;X;X<.b ' M ,.#.e # K J X w E E Y E E E E E E ",
"E E E E E E E E ! J Q.#XU.U.#XQ.' M c.v ;.;X;X;X;X;X;X;X;X;.v x.x.z.R Q.#XU.U.#XQ.P E E E E E E E E ",
"E E E E E E E E ! e `.*XQ.Q.*X].b.N.^.n.P.&X%X%X%X%X%X%X&XP.n././.N.b.'.*XQ.Q.*X}.f ! E E E E E E E ",
"E E E E E E E E Y E Z % L J $ L @.| ,.-.^ e q w w w q q e ^ -.;.;.O.+.P $ P K % n E E E E E E E E E ",
"E E E E E E E E E E E ! E E ^ E P P J P Y ! W E ! W ! ! W Y L L L I P E ! E E ! ! E E E E E E E E E ",
"E E E E E E E E E E E E E E E E E E E E E E E E E E E E E E ! E E E E W E E E E E E E E E E E E E E ",
"E E E Y E E E E E E E E E E E E E E E E E E E E E E E E E E E E E E E E E E E E E E E E E E E E E E ",
"E E E E E E E E E E E E E E E E E E E E E E E E E E E E E E E E E E E E E E E E E E E E E E E E E E ",
"E E E E E E E E E E E E E E E E E E E E E E E E E E E E E E E E E E E E E E E E E E E E E E E E E E ",
"E E E E E E E E E E E E E E E E E E E E E E E E E E E E E E E E E E E E E E E E E E E E E E E E E E ",
"Y Y E Y E E E E E E E Y Y E Y U Y E Y Y Y Y Y E Y U E U E E Y Y Y Y Y Y Y Y E E Y Y E E Y E U E E E ",
"1 , . + + O .       O 1 1 1 1 1 1 1 1 1 1 1 1 1 1 1 1 1 1 1 1 1 1 1 1 1 : , < @ : < < : @ + ; + : 1 ",
"O J { U ! U ,.<...;.{ + < : : : : : : : : : : : : : : , : : @ : : : , : 0 7 7 q 7 7 7 7 w Z q G 8 @ ",
"O K ;.{ X.+.,.R.U.R.+.  1 < < < < < < < < < < < < < < < < < < < < < < + { +.+.$.#.X.o.o.+.;.#.;.~ O ",
"< + . + O O O       O 1 < < < < < < < < : < < < < < < < < < < < < < < < + + + O + + + + O . O O + < "
};
