/* XPM */
static char *_67c84dcc43d4b1af39d5813c52cd22dPgRQ1PyY0Erhmj0i[] = {
/* columns rows colors chars-per-pixel */
"50 50 6 1 ",
"  c #262B44",
". c #C0CCDC",
"X c #8C9BB3",
"o c #596886",
"O c #3A4466",
"+ c #2E3652",
/* pixels */
"                                                  ",
"  ..... .................  XXXXXXXXXXXXXX oooooo  ",
"  ..... .................  XXXXXXXXXXXXXX oooooo  ",
"  oXX.. ooXXXXXXXXXXXXXX.  OoooooooooooXX ++OOOo  ",
"  oXX.. ooXXXXXXXXXXXXXX.  OoooooooooooXX ++OOOo  ",
"  ooo.. oooooooooooooooo.  OOOOOOOOOOOOOO +++++o  ",
"                                                  ",
"                                                  ",
"  ..... ...........  XXXXXXXXXXXXXXX  oooooooooo  ",
"  oXX.. ooXXXXXXX..  OooooooooooooXX  +OOOOOOOOo  ",
"  oXX.. ooXXXXXXX..  OooooooooooooXX  +OOOOOOOOo  ",
"  ooo.. ooXXXXXXX..  OooooooooooooXX  +OOOOOOOOo  ",
"        ooXXXXXXX..  OooooooooooooXX  +OOOOOOOOo  ",
"        ooXXXXXXX..  OooooooooooooXX  +OOOOOOOOo  ",
"  ..... ooXXXXXXX..  OooooooooooooXX  +OOOOOOOOo  ",
"  oXX.. ooXXXXXXX..  OooooooooooooXX  +OOOOOOOOo  ",
"  oXX.. ooXXXXXXX..  OooooooooooooXX  +OOOOOOOOo  ",
"  oXX.. ooXXXXXXX..  OooooooooooooXX  +OOOOOOOOo  ",
"  oXX.. ooooooooo..  OOOOOOOOOOOOOOO  +++++++++o  ",
"  oXX.. ooooooooo..  OOOOOOOOOOOOOOO  +++++++++o  ",
"  oXX..                                           ",
"  oXX.. ................ XXXXXXXXXXXXXXXXX  oooo  ",
"  oXX.. ................ XXXXXXXXXXXXXXXXX  oooo  ",
"  oXX.. ooXXXXXXXXXXXX.. OOooooooooooooooX  +OOo  ",
"  oXX.. ooXXXXXXXXXXXX.. OOooooooooooooooX  +OOo  ",
"  oXX.. ooXXXXXXXXXXXX.. OOooooooooooooooX  +OOo  ",
"  oXX.. ooXXXXXXXXXXXX.. OOooooooooooooooX  +OOo  ",
"  oXX.. ooXXXXXXXXXXXX.. OOooooooooooooooX  +OOo  ",
"  oXX.. ooXXXXXXXXXXXX.. OOooooooooooooooX  +OOo  ",
"  ooo.. oooooooooooooo.. OOOOOOOOOOOOOOOOO  +++o  ",
"  ooo.. oooooooooooooo.. OOOOOOOOOOOOOOOOO  +++o  ",
"                                                  ",
"  ..... ......  ............  XXXXXXXXXXX oooooo  ",
"  ..... ......  ............  XXXXXXXXXXX oooooo  ",
"  oXX.. ooXXX.  oXXXXXXXXXX.  OooooooooXX ++OOOo  ",
"                oXXXXXXXXXX.  OooooooooXX ++OOOo  ",
"                oXXXXXXXXXX.  OooooooooXX ++OOOo  ",
"  ............  oXXXXXXXXXX.  OooooooooXX ++OOOo  ",
"  oXXXXXXXXXX.  oXXXXXXXXXX.  OooooooooXX ++OOOo  ",
"  oXXXXXXXXXX.  oXXXXXXXXXX.  OooooooooXX ++OOOo  ",
"  oXXXXXXXXXX.  oXXXXXXXXXX.  OooooooooXX ++OOOo  ",
"  oXXXXXXXXXX.  oXXXXXXXXXX.  OooooooooXX ++OOOo  ",
"  oXXXXXXXXXX.  ooooooooooo.  OOOOOOOOOXX +++++o  ",
"  oXXXXXXXXXX.                                    ",
"  oXXXXXXXXXX.                                    ",
"  oXXXXXXXXXX.  ........... XXXXXXXXXXXXXXXX ooo  ",
"  oXXXXXXXXXX.  oXXXXXXXX.. OOooooooooooooXX OOo  ",
"  oXXXXXXXXXX.  oXXXXXXXX.. OOooooooooooooXX OOo  ",
"  ooooooooooo.  ooooooooo.. OOOOOOOOOOOOOOXX OOo  ",
"                                                  "
};
