/* XPM */
static char *_0385101249a4cd7ee7865ad3a57fa1e6jdq9i1hMSHBvycs[] = {
/* columns rows colors chars-per-pixel */
"50 50 120 2 ",
"   c #000004",
".  c #00010B",
"X  c #0D000E",
"o  c #000A0D",
"O  c #0D0F0E",
"+  c #0F100E",
"@  c #15120F",
"#  c #18130F",
"$  c #000011",
"%  c #0D0515",
"&  c #000911",
"*  c #0B0C12",
"=  c #1C0610",
"-  c #140C11",
";  c #1C0B13",
":  c #141111",
">  c #1C1411",
",  c #250113",
"<  c #290213",
"1  c #230F15",
"2  c #290E16",
"3  c #241414",
"4  c #2D1416",
"5  c #271815",
"6  c #2D1917",
"7  c #251518",
"8  c #2A1618",
"9  c #2C1A19",
"0  c #311417",
"q  c #341A17",
"w  c #311519",
"e  c #391618",
"r  c #341A1A",
"t  c #3B1C1A",
"y  c #3B231A",
"u  c #431E1C",
"i  c #481F1D",
"p  c #45231C",
"a  c #4B211E",
"s  c #412A1E",
"d  c #4D281E",
"f  c #51231F",
"g  c #572E1F",
"h  c #582E1F",
"j  c #4F2320",
"k  c #532520",
"l  c #582721",
"z  c #552D20",
"x  c #5D2A23",
"c  c #573627",
"v  c #5A3120",
"b  c #563826",
"n  c #5D3C27",
"m  c #622C24",
"M  c #692F25",
"N  c #633324",
"B  c #6D3227",
"V  c #663C27",
"C  c #6F3328",
"Z  c #663E29",
"A  c #703227",
"S  c #703827",
"D  c #763629",
"F  c #78372A",
"G  c #773E2A",
"H  c #79382A",
"J  c #783D28",
"K  c #793F29",
"L  c #7F3B2C",
"P  c #6D452F",
"I  c #7B412A",
"U  c #7C412A",
"Y  c #7D422B",
"T  c #7F422B",
"R  c #823D2D",
"E  c #833D2D",
"W  c #87402E",
"Q  c #81442C",
"!  c #87462F",
"~  c #8A432E",
"^  c #8A432F",
"/  c #8C432F",
"(  c #8D4A2F",
")  c #8E4530",
"_  c #8F4630",
"`  c #8F4631",
"'  c #8F4B30",
"]  c #914731",
"[  c #924731",
"{  c #924831",
"}  c #934931",
"|  c #964931",
" . c #944A30",
".. c #924D31",
"X. c #974E32",
"o. c #984C32",
"O. c #9A4C33",
"+. c #984F33",
"@. c #9B4D34",
"#. c #9C4E34",
"$. c #8A5537",
"%. c #9C5034",
"&. c #9C5135",
"*. c #A05035",
"=. c #A15235",
"-. c #A35236",
";. c #A55437",
":. c #A55438",
">. c #AB5A3B",
",. c #B05F3D",
"<. c #9D613F",
"1. c #A3643F",
"2. c #B5633F",
"3. c #B66340",
"4. c #B56B44",
"5. c #B36D45",
"6. c #BC7248",
"7. c #C36E46",
"8. c #C2744A",
"9. c #D27E4F",
/* pixels */
"v v v v v v v v v v v v v v x Z y . 3 s v v v v v v v v v v v v h v v v v v v n y v v v v v v v v v ",
"#.#.#.#.#.#.#.#.#.#.#.#.#.#.o.3.5.9 X K %.#.#.#.#.#.#.#.#.#.#.#.#.#.#.#.#.o.;.2.v #.#.%.#.#.o.#.o.%.",
"A B A B A B A A C A C C A C C A 2.4.6 h D B A A A B A B A B A B B B B B A B F  .3 m D B B B B B A A ",
"F F F F F F F F F F A F F F F A F >.y x H F F F F F F H H F F F F F F F F F H X.6 N F H F F F F F F ",
"D F D D F D F D D F F F H A F F F o.t x F F F A D F F B m B F F D D D D F B L X.4 m F D D D F D F F ",
"D D D D F D D D D D m D H H A A F #.t x F F F F F D x m m N F F F D D F F D L X.6 M F D D F D D F F ",
"D D D F F F D D D D x A A H H F F #.t x F B l l f x m F F F A F D D D D D D L X.4 M F D F D D D A F ",
"F D F F C A F D F D M j u N H A D #.q y h l D B D B m D D D F F D D F D F C L X.4 M F F B D F D F F ",
"A F D F C x m F A j r 7 7 j C x C -.q f F D D F D F x m H F D F D D D F A A K X.6 M F H m m F F D F ",
"F F F D F C m m j 8 3 > > r l C B N q m F D D F F F B B H F D F D F A F F F L #.7 k m B x A F F F A ",
"D A C D D F m 9 9 9 3 > > > r l y O 8 m F D D F D F F D A D D D F F D F F N k d 3 6 r l F F D A D F ",
"u u u t u e % * 7 7 7 3 > > : $ . . o ; 4 4 4 4 4 4 , e p u 0 4 0 2 4 6 0 ; $ . .   . * w 4 4 4 3 4 ",
"@ @ # # o v ! G k p r 9 3 > p Y T K N T T I I I T K $.b   o v Q Q I I T I T T T T T T I I I I T T T ",
"5 5 8 8 + x ) { :.R a 8 t u A ) [ ~ B [ [ [ [ [ { / >.8.c > h [ / { { / ~ [ [ { [ [ [ [ { { [ [ [ [ ",
"i i i r 3 6 m F R B i a x D D C A k B B B B B B A A M -.9.1.X m C B B B D B B B B B B B C C C C B A ",
"a a i i 3 q A F A B x F B B D F B x F H F F F F F F F B -...4 A F F H F D H F F F F F D F A F F F F ",
"i u j u 3 q B D F N D D F F F F x B F F F A H H F D F C R ' 3 C F B x A H F F F A F F F F D F D D S ",
"j j i i 3 q B F F F D F F A F B m x B F F H F A A F H C W ' 1 C F C N x A F F B l N m A F F D D D F ",
"i i i i 3 q B F A F D D A F F x B x A H F A H A H F C B ~ ' 3 A D D F B x H B x F m m H D A D D D D ",
"j i a p 3 r B D A F D F F F B m F F F F H A F F D F B l R { 1 A F D F F x C x B H H m m F D D D D D ",
"i j i u 7 q B F F F F F D D F F A F D D D D H F F A F M B D 8 B F A F F F x N A F F F B A F D F D D ",
"i i i i 7 r D F F A D D F D D D D F F D D D A F F F F F R Q 4 C F F F A F m B F F A D F D F D D D F ",
"a i j u 3 9 m F F F F A F F F F F F D D D H D F A F F B R ' 3 m H F A F m x H F F A F F D F D F D D ",
"a a j i 9 3 r x B K F H H F F F F F F F F g m H H H H F ~ ' 3 u m H H F m D H H F F H F F F F F F F ",
"u e t u w & & % w a a a a u a i u f k a r . & u a i p i a a . . 3 i i u 2 f l f f i i i i p a p i i ",
"C D C A C N v v v v p v z v h h Z > 8 v v v v v h v x v v g v v v v h h V s . > y v h g v v x x h h ",
"#.#.#.O.#.#.#.#.%.{ L #.#.#.#. .7.<.p X.#.#.%.#.#.#.#.#.#.#.%.%.#.#.#. .,.6.y   x %.#.#.#.#.#.#.-.o.",
"C C B A A A A A m f D B A A D B L 3.t k F A A C B A A A A A A A A A A B M ,.6.r ; x D B B C C A D B ",
"F F F F F H A x x F F D D F F D F  .t x H F F F F D D F F F F D F D F F D R 9.P = B F F F F F H F A ",
"D F A F A M m A D D F D D D D D F %.t x H A F A B D D D F F D D D F D D F F #.4.5 m F F F F A M f u ",
"D A H F x m m H D D D D D F D D H #.y h F F F F f A F D D D D D D D D D F D F  .6 m F F M x t r q 8 ",
"F F A x C F k C D D F D D D D F D #.t m F F H m N F D D D D D F D D D F F A L #.6 m F F A k i t 3 8 ",
"F m x C F D B x F F D D D D D D F #.t x F F D h M F D D F B x F F F F F D D I X.8 m F D F D D m f f ",
"x N F F F A H F D D D D D D D D H %.y x F F B N F D D D A F B x N F F A D D H %.8 B F F D D F F F F ",
"B H A F F F F H D D D D D F D F M N 6 m F D F F F F F F F F H B m N F F F B L o.6 m H F F F F D D F ",
"F A D A F A A D D D D D D D D B u * 5 u B F D D A D D D A D D F F C F A F H A k 6 M D H D D F A D D ",
"y i p t u u t 0 4 0 t 4 8 4 4 4 - . . . 1 0 4 4 4 4 4 4 < a p t 4 0 4 4 4 0 4 . . 1 4 4 8 6 4 4 4 4 ",
"O O : : # : 5 T T K d I I I T T T T T T T K T T T L I T $.: + 3 G T I T I L T T T I L T I I I L Q K ",
"r t 9 3 > # 6 H  .[ A L  .[ [ [ { [ { { [ ) [ [ / { { ) 7.<.. x / { { { [ [ [ { [ [ { [ ) [ [ [ ) { ",
"%.%.) j 7 5 a M C A B k B B B B B B B A B B A B B A B B R %.1 B A B B A B B B B B B A B A B B D A A ",
"H F  ./ 3 r A F F F H B x H F F F F D F F S H H F F F D R ~ 3 A F F D F F F D F D H F F D F D x D H ",
"F A F #.9 0 C F A F A x A H A F D D D D F D m S D D D C ~ } 2 A F D D F D D D D F D D D D D D m x A ",
"F A F ~ Q 4 B F F F F m C F F F D D D D D l C F D D F C R { 3 B D D A F D D F F D D D D D F F F A x ",
"F F A R ( 3 C F C B B x C A F F D D D F B x F D D D H D W ( 3 A F G x B F D F A F D D F D D D F D D ",
"F F A Q ' 3 C F B x t p m C F F D D D F m D S F D D F B W ( 3 A F C x N F F A F F A A D D D D D D A ",
"A H A / { 1 C F F C i 7 p B F A D D D D F F F D D F F B W { 3 C F x m B x F F F F F F D D F D D D F ",
"F F A W ' 3 C F F m B a r m F A D D D D F D F D F F F B R ( + a j m F F C F D D D D D D D D D D F F ",
"F H A ) { 3 A F F F F m B C F H F F F F F F F F F F F S ~  .o 4 k H H F H F G F F F F F F F F F F F ",
"x m x B N 3 x x z m f a m m x m x m z m m m m h m m m h B B + 3 u x x m x m z m m m m h x m m x m x ",
"3 3 3 3 - > 3 4 3 3 > 5 3 5 3 3 3 3 3 3 1 1 3 1 3 3 1 3 3 @ > # > 7 3 5 3 3 3 3 3 3 3 3 3 1 3 3 3 3 "
};
